<svg width="30" height="30" viewBox="0 0 30 30" fill="none" xmlns="http://www.w3.org/2000/svg">
<path opacity="0.4" d="M30 15C30 23.2843 23.2843 30 15 30C6.71573 30 0 23.2843 0 15C0 6.71573 6.71573 0 15 0C23.2843 0 30 6.71573 30 15Z" fill="#79DD97"/>
<path opacity="0.5" d="M26.0525 14.9999C26.0525 21.1041 21.1041 26.0525 14.9999 26.0525C8.8957 26.0525 3.94727 21.1041 3.94727 14.9999C3.94727 8.8957 8.8957 3.94727 14.9999 3.94727C21.1041 3.94727 26.0525 8.8957 26.0525 14.9999Z" fill="#79DD97"/>
<g clip-path="url(#clip0_388_237)">
<path d="M9.0085 9.92774C9.98528 13.7934 11.3884 17.535 13.1929 21.0902C13.4744 21.6407 14.6167 21.2848 14.8857 20.875C18.201 15.7635 24.6592 8.1777 29.2575 4.19199C29.5306 3.95607 29.423 3.68291 29.1002 3.60013C28.7153 3.5008 28.2145 3.67049 27.9165 3.91882C23.1609 7.88384 16.624 15.6435 13.255 20.8378L14.9478 20.6225C13.1432 17.0673 11.7402 13.3257 10.7634 9.46005C10.6061 8.85164 8.85536 9.31106 9.0085 9.92774Z" fill="#170F49"/>
</g>
<defs>
<clipPath id="clip0_388_237">
<rect width="21.6" height="18.6" fill="white" transform="translate(8.40039 3)"/>
</clipPath>
</defs>
</svg>
