<svg width="38" height="61" viewBox="0 0 38 61" fill="none" xmlns="http://www.w3.org/2000/svg">
<path d="M12.1772 41.43C12.2905 41.4608 12.384 41.5103 12.4555 41.5774C12.373 41.5114 12.2773 41.4619 12.175 41.43H12.1772ZM20.423 2.41622C21.1271 2.41622 21.7541 2.46352 22.3019 2.56032C22.3173 2.56252 22.3316 2.56472 22.3459 2.56692C29.0055 3.38095 33.2461 6.77125 35.0689 12.7389H35.0667C35.8422 16.2458 35.9841 19.1235 35.4913 21.3709C35.1085 22.9549 34.5265 24.4653 33.7444 25.9008H33.7433L28.714 34.3468C28.6975 34.3743 28.6821 34.4029 28.6689 34.4326C28.2399 35.3864 27.9781 37.7844 27.8834 41.628H27.8812C27.791 42.2539 27.6315 42.7456 27.4005 43.1031H27.3994C26.4611 44.4088 24.5273 45.0612 21.5979 45.0612C19.9357 45.0612 17.9524 44.8511 15.6478 44.4308H15.6456C15.5576 44.2955 15.43 44.1844 15.2716 44.1162C13.8305 43.4947 12.9868 42.7874 12.7404 41.9932C12.7085 41.8876 12.6568 41.793 12.5919 41.7116H12.5908C12.516 41.145 12.5897 39.6083 12.8108 37.1024C12.8141 37.065 12.8152 37.0276 12.8141 36.9891C12.78 36.2422 12.5633 35.4799 12.164 34.7033L12.1585 34.6945C11.8934 34.1928 11.4127 33.4844 10.7174 32.5681C10.6932 32.5373 10.6679 32.5076 10.6404 32.4801C8.77699 30.621 7.26555 28.8511 6.10721 27.1713H6.10501C4.40766 24.1562 3.44184 22.1079 3.20643 21.0266C3.19873 20.9914 3.18883 20.9573 3.17673 20.9232C1.95349 17.479 2.70042 13.5364 5.41749 9.09781C7.10934 6.53254 9.0498 4.79889 11.24 3.89906H11.2389C15.1011 2.91013 18.1625 2.41622 20.423 2.41622ZM20.4505 0.719971C18.0085 0.719971 14.7799 1.23479 10.7647 2.26552C10.7273 2.27542 10.6921 2.28642 10.6569 2.30072C8.11807 3.32705 5.89821 5.2807 3.99735 8.16279L3.98305 8.18589C0.979965 13.081 0.173642 17.5043 1.56188 21.4556H1.55968C1.85339 22.7173 2.87862 24.9075 4.63537 28.0261C4.64747 28.0481 4.66067 28.069 4.67497 28.0899C5.89051 29.8587 7.46685 31.7123 9.40511 33.6483H9.40291C10.0211 34.4645 10.4391 35.0784 10.6569 35.4898C10.932 36.0277 11.0849 36.5392 11.1135 37.0232H11.1113C10.855 39.935 10.8099 41.694 10.9771 42.3012C11.0332 42.5069 11.1168 42.6719 11.2279 42.7984H11.2257C11.6459 43.8126 12.5611 44.675 13.9724 45.3857H13.9702C14.0604 45.6739 14.3014 45.9038 14.6193 45.9654C17.245 46.4791 19.532 46.7354 21.4769 46.7354C25.1092 46.7354 27.5534 45.8411 28.8108 44.0524C28.8174 44.0436 28.824 44.0337 28.8295 44.0238C29.2046 43.443 29.4532 42.6994 29.5753 41.7941C29.5786 41.7633 29.5819 41.7325 29.5819 41.7017C29.6688 38.1464 29.8745 35.9716 30.1979 35.1796H30.1968L35.2218 26.7423L35.2372 26.7137C36.0941 25.1418 36.731 23.4873 37.149 21.7526L37.1523 21.735C37.7012 19.2313 37.5549 16.0907 36.7134 12.3143C36.709 12.2934 36.7035 12.2725 36.6969 12.2516C34.664 5.58211 29.9581 1.7925 22.5802 0.882775H22.578C21.9521 0.773872 21.2426 0.719971 20.4505 0.719971Z" fill="#170F49"/>
<path d="M19.3953 13.3757C19.1016 13.3757 18.8321 13.5176 18.5879 13.8014C18.3844 14.0369 18.1446 14.4901 17.8707 15.1611C17.7409 14.885 17.5891 14.6705 17.4153 14.5154C17.2415 14.3614 17.049 14.2525 16.8378 14.1887H16.8367C16.7465 14.1458 16.6552 14.1095 16.565 14.0787C16.3131 13.9951 16.071 13.9521 15.8389 13.9521C15.1635 13.9521 14.5717 14.3097 14.0624 15.0236C13.6136 14.5968 13.1736 14.3273 12.7423 14.2151C12.5586 14.1678 12.3826 14.1436 12.2132 14.1436C11.1506 14.1436 10.3751 15.0841 9.88666 16.9651C9.87456 17.0113 9.86686 17.0597 9.86246 17.1081C9.73266 18.6636 10.0319 20.6601 10.7601 23.0967C10.7645 23.1099 10.7689 23.1231 10.7744 23.1374C13.5894 31.0697 15.3373 36.2718 16.016 38.7447H16.0138C16.3989 40.9359 16.4044 43.0315 16.0292 45.0336C15.9423 45.4945 16.247 45.9389 16.708 46.0247C16.7608 46.0346 16.8136 46.0401 16.8653 46.0401C17.2668 46.0401 17.6232 45.7552 17.7002 45.346C18.116 43.1239 18.1083 40.8061 17.6782 38.3905C17.6738 38.3652 17.6672 38.3399 17.6606 38.3157C16.9764 35.8153 15.2196 30.5791 12.3903 22.6094H12.3892C11.7358 20.4225 11.4553 18.6625 11.551 17.3292H11.5488C11.8084 16.3469 12.0504 15.8552 12.2759 15.8552C12.2891 15.8552 12.3023 15.8574 12.3155 15.8607C12.5113 15.9113 12.7687 16.1093 13.0867 16.4558H13.0856C13.1406 16.5284 13.1934 16.601 13.2451 16.6736H13.2429C13.2143 16.755 13.1846 16.8375 13.1571 16.9222C13.1505 16.9409 13.145 16.9596 13.1395 16.9794C12.3694 19.9451 12.6466 21.7327 13.9711 22.3421C14.0844 22.3938 14.2054 22.4202 14.3264 22.4202C14.4793 22.4202 14.6311 22.3795 14.7664 22.2981C14.9204 22.2046 15.0568 22.0803 15.1756 21.9263C15.6079 21.362 15.8081 20.2388 15.7751 18.5547C15.774 18.5261 15.7718 18.4964 15.7685 18.4678C15.6882 17.8111 15.4781 17.162 15.1404 16.5185H15.1382C15.4055 15.9542 15.6651 15.6726 15.9148 15.6726C15.9511 15.6726 15.9885 15.6781 16.0248 15.6913C16.0622 15.7034 16.1018 15.721 16.1447 15.743C16.1975 15.7694 16.2525 15.7914 16.3087 15.8068H16.3076C16.6233 16.1258 16.7751 17.162 16.7619 18.9144H16.7597C16.6486 19.6954 16.6222 20.4709 16.6816 21.2421C16.7157 21.6843 17.0853 22.0264 17.5297 22.0264C17.5319 22.0264 17.5341 22.0253 17.5374 22.0253C17.984 22.022 18.3514 21.6722 18.3778 21.2256C18.4218 20.4764 18.4438 19.7878 18.4438 19.1586H18.4427C18.5043 18.7219 18.5978 18.283 18.7232 17.8397H18.7221C19.0774 16.7363 19.3634 15.9377 19.5823 15.4438H19.5834C19.7419 15.7298 19.8288 16.1511 19.8453 16.7088H19.8431C19.7386 16.9992 19.6329 17.3138 19.5262 17.6538C19.5207 17.6714 19.5152 17.689 19.5108 17.7066C19.1038 19.3654 19.0411 20.5666 19.3249 21.3136C19.4514 21.6447 19.7683 21.8614 20.1192 21.8614C20.1401 21.8614 20.1599 21.8603 20.1808 21.8592C20.5548 21.8317 20.8672 21.5633 20.9497 21.197C21.3039 19.6107 21.4832 18.2621 21.4865 17.1521H21.4854C21.6955 16.5614 21.877 16.1335 22.031 15.8695H22.0321C22.0904 16.0092 22.1399 16.2215 22.1806 16.5064C22.2499 16.9948 22.2664 17.6208 22.2279 18.3853H22.2268C22.0035 19.2675 21.9133 20.1915 21.9573 21.1585C21.9771 21.5974 22.328 21.9483 22.7669 21.9692C22.7801 21.9692 22.7933 21.9703 22.8065 21.9703C23.229 21.9703 23.5898 21.659 23.6481 21.2366C23.7812 20.2817 23.8692 19.4292 23.9132 18.6768H23.911C24.1651 17.7495 24.6007 16.8771 25.2189 16.062H25.2211C25.2376 16.0895 25.2541 16.1225 25.2728 16.1599C25.3443 16.3051 25.4081 16.4943 25.4653 16.7264H25.4631C25.2959 17.1213 25.1419 17.5416 25.0011 17.9882L24.9934 18.0146C24.6271 19.3258 24.4797 20.2267 24.5501 20.7162C24.5864 20.9715 24.6744 21.1805 24.8141 21.3444H24.813C24.9582 21.5688 25.1617 21.7052 25.4213 21.7547C25.4917 21.7679 25.5599 21.7745 25.6248 21.7745C25.9823 21.7745 26.265 21.5754 26.4707 21.1783C26.6391 20.8526 26.8228 20.1618 27.0219 19.1069C27.1803 18.3424 27.243 17.6384 27.2089 16.9948H27.2067C27.3838 16.6274 27.5741 16.293 27.7776 15.9927H27.7798C27.8348 16.1698 27.8854 16.4184 27.9305 16.7385H27.9294C28.0405 17.9783 27.8777 19.317 27.441 20.7569L27.4388 20.7635C27.2331 21.4621 27.0274 22.0715 26.8206 22.5918C25.4411 25.7335 24.5853 27.8258 24.2542 28.8708C23.5865 30.8101 23.1563 32.3975 22.9649 33.6328H22.9638C22.2708 37.2112 22.1399 41.1086 22.5722 45.324C22.6173 45.7618 22.9869 46.0874 23.4171 46.0874C23.4457 46.0874 23.4754 46.0863 23.5051 46.083C23.9715 46.0357 24.3114 45.6177 24.2641 45.1513C23.8472 41.0899 23.9726 37.3487 24.6392 33.9265L24.6447 33.8946C24.8218 32.7539 25.2299 31.2568 25.8679 29.4043L25.8745 29.3845C26.1891 28.3945 27.0274 26.3484 28.3903 23.2463L28.4024 23.2177C28.6257 22.6512 28.8479 21.9956 29.0679 21.2498C29.5739 19.5821 29.7576 18.0113 29.619 16.5394C29.6179 16.5262 29.6157 16.513 29.6146 16.4998C29.4892 15.6209 29.2659 14.9928 28.9458 14.6155C28.926 14.5924 28.9062 14.5704 28.8864 14.5495C28.6015 14.2492 28.2825 14.0985 27.9294 14.0985C27.7424 14.0985 27.5455 14.1403 27.3398 14.225C27.1 14.3229 26.8591 14.4868 26.617 14.7167C26.5796 14.753 26.5444 14.7926 26.5136 14.8344C26.4993 14.8542 26.485 14.8751 26.4696 14.896C26.3805 14.7893 26.2848 14.6958 26.1814 14.6166C25.8965 14.3977 25.5819 14.2888 25.2365 14.2888C25.1694 14.2888 25.1001 14.2932 25.0308 14.3009C24.8218 14.3262 24.6117 14.3911 24.3983 14.4945C24.2883 14.5484 24.1915 14.6254 24.1134 14.72C23.9462 14.9235 23.7878 15.1314 23.6404 15.3415C23.4864 14.9279 23.2741 14.6089 23.0034 14.3856C22.746 14.1733 22.4523 14.0523 22.1201 14.0215C22.0662 14.016 22.0123 14.0138 21.9584 14.0138C21.8704 14.0138 21.7813 14.0204 21.69 14.0336C21.624 14.0424 21.558 14.06 21.4964 14.0853C21.349 14.1436 21.2093 14.2327 21.0784 14.3526C21.0344 14.3922 20.9893 14.4384 20.9453 14.4901C20.6967 14.0556 20.3623 13.7376 19.9432 13.5363H19.941C19.8706 13.4901 19.7947 13.4549 19.7143 13.4285C19.6043 13.3933 19.4987 13.3757 19.3953 13.3757Z" fill="#170F49"/>
<mask id="mask0_362_256" style="mask-type:luminance" maskUnits="userSpaceOnUse" x="11" y="43" width="18" height="18">
<path d="M11.707 43.5005H28.6035V60.8766H11.707V43.5005Z" fill="white"/>
</mask>
<g mask="url(#mask0_362_256)">
<path d="M13.161 43.7334C12.733 43.7334 12.3645 44.0568 12.3172 44.4913C12.0114 47.292 11.9157 49.1005 12.0301 49.9156H12.029C12.1786 51.3665 12.535 52.6734 13.0982 53.8339L13.1048 53.846C13.2732 54.1804 13.4558 54.4807 13.6494 54.7458L16.2861 58.3484L16.2916 58.3539C16.5534 58.707 16.8384 59.026 17.1431 59.311C17.153 59.3209 17.164 59.3308 17.175 59.3396C18.3817 60.3604 19.5818 60.8708 20.7754 60.8708C20.8106 60.8708 20.8469 60.8697 20.8821 60.8697H20.8832C20.9789 60.8796 21.0735 60.884 21.1692 60.884C22.113 60.884 23.0546 60.3978 23.9963 59.4254C24.0139 59.4078 24.0304 59.3891 24.0469 59.3704C25.852 57.1439 27.0467 55.2529 27.6308 53.6975H27.6297C28.0983 52.6261 28.3678 51.0145 28.4371 48.8606C28.5306 47.3745 28.2798 45.9467 27.6858 44.5782C27.5461 44.2581 27.2337 44.0667 26.9047 44.0667C26.7925 44.0667 26.677 44.0898 26.567 44.1371C26.1358 44.3241 25.9389 44.8246 26.1259 45.2558C26.6121 46.3735 26.8167 47.5395 26.7397 48.7539L26.7386 48.7803C26.677 50.7285 26.4548 52.1409 26.072 53.0166C26.0654 53.032 26.0588 53.0463 26.0533 53.0628C25.5418 54.4466 24.4385 56.1858 22.7411 58.2802H22.74C22.1471 58.8819 21.6213 59.1833 21.1615 59.1833C21.1164 59.1833 21.0724 59.1811 21.0295 59.1745C20.9921 59.1701 20.9558 59.1679 20.9184 59.1679C20.9063 59.1679 20.8942 59.1679 20.8821 59.1679C20.848 59.1701 20.8139 59.1701 20.7787 59.1701C20.0075 59.1701 19.1836 58.8038 18.3069 58.0701H18.3047C18.0748 57.8556 17.8603 57.6136 17.659 57.3441L15.0211 53.7415L14.9496 53.6568L15.0211 53.7404C14.8847 53.5545 14.7538 53.3378 14.6284 53.0914C14.1488 52.1035 13.8452 50.9771 13.7176 49.7121L13.7132 49.6802C13.6197 49.0048 13.7176 47.3371 14.008 44.6761C14.0586 44.2097 13.7209 43.7895 13.2545 43.7389C13.2237 43.7356 13.1918 43.7334 13.161 43.7334Z" fill="#170F49"/>
</g>
<path d="M26.8155 45.5728C26.6263 45.5728 26.4348 45.6355 26.2775 45.7653C25.6318 46.2955 25.0268 46.6629 24.4625 46.8686L24.4394 46.8774C23.8795 47.0996 22.9521 47.3108 21.6574 47.5099L21.6552 47.511C20.7279 47.6573 18.9777 47.7453 16.4059 47.775C14.8042 47.7739 13.8208 47.6881 13.4556 47.5198C13.3401 47.467 13.2191 47.4417 13.1003 47.4417C12.778 47.4417 12.471 47.6243 12.3269 47.9356C12.1311 48.3613 12.317 48.8662 12.7428 49.0632C13.3346 49.336 14.5567 49.4735 16.4092 49.4746H16.4191C19.0745 49.4449 20.9072 49.3492 21.917 49.1908C23.3229 48.9741 24.3646 48.732 25.0444 48.4658C25.7902 48.1941 26.5614 47.7321 27.3556 47.0798C27.7186 46.7817 27.7714 46.246 27.4733 45.883C27.305 45.6784 27.0619 45.5728 26.8155 45.5728Z" fill="#170F49"/>
<path d="M27.6497 47.2549C27.3791 47.2549 27.114 47.3836 26.949 47.6223C26.2824 48.587 25.5817 49.3108 24.8479 49.7916C24.8358 49.8004 24.8226 49.8081 24.8105 49.8169C24.343 50.1612 23.6126 50.4549 22.6204 50.698C21.6105 50.9334 19.9473 51.0555 17.6295 51.0643H17.6284C17.5833 51.0643 17.5382 51.0643 17.492 51.0643C16.0224 51.0643 14.5747 50.9235 13.1491 50.6408C13.093 50.6298 13.0369 50.6243 12.983 50.6243C12.5848 50.6243 12.2295 50.9048 12.1492 51.3096C12.0579 51.7705 12.3582 52.2171 12.818 52.3084C14.3536 52.612 15.9113 52.7638 17.492 52.7638C17.5404 52.7638 17.5888 52.7638 17.6372 52.7638H17.6361C20.0892 52.7539 21.8822 52.6164 23.0175 52.3513L23.0263 52.3491C24.2154 52.0565 25.1339 51.6781 25.7819 51.2128H25.7797C26.6993 50.6111 27.5551 49.7355 28.3482 48.5881C28.6144 48.202 28.5176 47.6729 28.1315 47.4056C27.9841 47.3044 27.8158 47.2549 27.6497 47.2549Z" fill="#170F49"/>
<path d="M26.7623 50.7122C26.4873 50.7122 26.2167 50.8464 26.0528 51.0928C25.6612 51.6835 25.1563 52.1796 24.5391 52.5811H24.5369C23.8989 52.9507 23.0299 53.2774 21.931 53.5623H21.9288C20.8793 53.7911 19.6737 53.9342 18.3152 53.9914H18.313C18.2305 53.9936 18.1458 53.9947 18.0589 53.9947C17.7596 53.9947 17.4329 53.9826 17.0765 53.9573H17.0754L14.4485 53.6965C14.4199 53.6932 14.3913 53.6921 14.3638 53.6921C13.9315 53.6921 13.5619 54.02 13.519 54.4578C13.4717 54.9253 13.8138 55.3422 14.2802 55.3884L16.9148 55.6502L16.939 55.6524C17.3416 55.681 17.7145 55.6942 18.06 55.6942C18.1656 55.6942 18.269 55.6931 18.3702 55.6909L18.3834 55.6898C19.8541 55.6282 21.1664 55.4698 22.3193 55.2168L22.3501 55.2102C23.625 54.8791 24.6524 54.4853 25.4313 54.0277C25.4423 54.0211 25.4533 54.0145 25.4643 54.0079C26.2783 53.4776 26.9471 52.8198 27.4696 52.0322C27.7292 51.6417 27.6225 51.1137 27.2309 50.8541C27.0868 50.7584 26.924 50.7122 26.7623 50.7122Z" fill="#170F49"/>
<path d="M26.4717 53.4851C26.2121 53.4851 25.9547 53.6039 25.7886 53.8283C25.2308 54.5785 24.2078 55.1858 22.7173 55.6489C21.857 55.9151 20.7383 56.1549 19.3622 56.3705C18.3149 56.5179 17.5504 56.5916 17.0664 56.5916C16.9333 56.5916 16.8211 56.5861 16.7309 56.574C16.6957 56.5707 16.6605 56.5685 16.6264 56.5685C16.2029 56.5685 15.8366 56.8831 15.7838 57.3143C15.7266 57.7796 16.0577 58.2042 16.523 58.2614C16.666 58.279 16.8376 58.2878 17.0378 58.2878C17.6373 58.2878 18.4953 58.2097 19.613 58.0524L19.6262 58.0502C21.0837 57.8214 22.2817 57.5629 23.2211 57.2725H23.2222C25.0658 56.6994 26.376 55.8887 27.1537 54.8414C27.4331 54.4652 27.355 53.9328 26.9777 53.6523C26.8248 53.5401 26.6477 53.4851 26.4717 53.4851Z" fill="#170F49"/>
</svg>
