<svg width="120" height="112" viewBox="0 0 120 112" fill="none" xmlns="http://www.w3.org/2000/svg">
<mask id="mask0_280_1082" style="mask-type:luminance" maskUnits="userSpaceOnUse" x="16" y="22" width="91" height="90">
<path d="M16.8896 22.0588H106.564V111.496H16.8896V22.0588Z" fill="white"/>
</mask>
<g mask="url(#mask0_280_1082)">
<path d="M59.4871 27.4712C64.901 40.4026 71.6299 53.2753 79.6719 66.0912C79.8773 66.4176 80.1799 66.6744 80.5357 66.8247C80.9208 66.9861 81.2931 67.0687 81.6544 67.0687C82.3513 67.0687 83.0079 66.7661 83.6223 66.1645C83.7763 66.016 83.923 65.8472 84.0624 65.6583C84.0973 65.6125 84.1303 65.5648 84.1596 65.5153C87.9981 59.2412 92.8142 53.0351 98.6095 46.8967H98.6077C99.8255 45.7083 100.851 44.7436 101.683 44.0064H101.687C99.3926 63.3439 98.615 76.4238 99.3523 83.248C99.1542 83.1838 98.9507 83.1197 98.7434 83.0591L98.7379 83.0573C96.5848 82.4337 93.2323 82.122 88.6822 82.122C84.2697 82.122 78.7292 82.4154 72.0627 83.0004L71.9857 83.0096C56.2978 85.038 42.6457 89.7477 31.0311 97.1349C30.7303 79.3325 28.5185 65.4878 24.3957 55.599H24.4012C32.0196 61.3045 38.0277 66.2342 42.4238 70.39C42.4568 70.4212 42.4916 70.4524 42.5283 70.4817C43.3114 71.1199 44.0798 71.5142 44.8336 71.6628C45.0702 71.7105 45.3031 71.7325 45.5323 71.7325C45.9175 71.7325 46.2934 71.6665 46.6566 71.5326C47.2563 71.3143 47.7038 70.8081 47.845 70.1883C53.2387 46.7518 57.1176 32.5128 59.4816 27.4712H59.4871ZM59.7163 22.248C59.3477 22.248 58.9644 22.3416 58.5628 22.5286C58.3885 22.6093 58.229 22.7157 58.0878 22.8441C55.4377 25.2649 50.9554 40.0853 44.641 67.3034C38.93 61.9592 30.7101 55.4174 19.9777 47.6817C19.6457 47.4414 19.2588 47.324 18.8736 47.324C18.3968 47.324 17.9236 47.5038 17.5587 47.8559C16.9021 48.4923 16.7994 49.5065 17.3129 50.2621C23.8951 59.9345 27.2219 76.7246 27.2934 100.634C27.2953 101.335 27.6877 101.975 28.3113 102.298C28.5845 102.441 28.8835 102.51 29.1806 102.51C29.5602 102.51 29.938 102.397 30.259 102.171C41.9708 94.0153 56.0264 88.8747 72.4222 86.7473H72.4185C79.096 86.1604 84.5613 85.867 88.8143 85.867C92.8802 85.867 95.8366 86.1347 97.6852 86.6702C100.827 87.5909 102.468 89.2103 102.609 91.5248H102.604C101.898 96.5169 96.8709 100.618 87.5213 103.827C80.1524 106.345 73.7133 107.605 68.204 107.605C65.0807 107.605 62.2564 107.2 59.731 106.391C59.5384 106.33 59.344 106.301 59.1533 106.301C58.3555 106.301 57.6146 106.809 57.3578 107.607C57.0387 108.595 57.5853 109.655 58.5774 109.973C61.466 110.899 64.6681 111.361 68.1857 111.361C74.1388 111.361 80.9923 110.037 88.7464 107.387L88.7482 107.385C99.6989 103.627 105.573 98.4315 106.373 91.798C106.384 91.7008 106.387 91.6018 106.384 91.5028C106.287 88.9664 105.315 86.9343 103.462 85.4048H103.459C103.471 85.2232 103.459 85.038 103.418 84.8528C102.142 79.1491 102.952 64.5359 105.848 41.0152C105.859 40.9363 105.863 40.8574 105.863 40.7786C105.857 39.2802 105.129 38.5319 103.68 38.5319C103.675 38.5319 103.669 38.5319 103.662 38.5319C103.334 38.5338 102.995 38.6035 102.639 38.741C101.445 39.2087 99.2221 41.0317 95.9686 44.2099L95.9154 44.2631C90.3108 50.1906 85.5846 56.195 81.7369 62.2746C73.8912 49.5707 67.3585 36.8153 62.1354 24.0087C62.0877 23.8895 62.0272 23.7776 61.9556 23.6712C61.8804 23.5575 61.8016 23.4511 61.7209 23.3539V23.3521C61.1157 22.6167 60.4481 22.248 59.7163 22.248Z" fill="#170F49"/>
</g>
<path d="M10.2323 26.4644C10.9971 26.6735 11.5766 27.4547 11.9709 28.81H11.9691C12.1415 29.4684 12.2185 30.1764 12.1983 30.9393C12.1965 31.0071 12.1983 31.0768 12.2057 31.1465H12.202C12.1763 31.5793 11.9819 32.7623 11.6188 34.6934L11.6078 34.7558C11.6078 34.7576 11.6059 34.7613 11.6059 34.765C11.3382 34.7485 11.0337 34.7301 10.6963 34.7081H10.6908C9.69127 34.6274 8.74677 34.488 7.85912 34.29C6.53866 33.9874 5.5098 33.5344 4.76887 32.9292H4.7652C4.09947 32.2763 3.76935 31.8086 3.77118 31.5298H3.76752C3.83537 31.4968 3.94725 31.4711 4.10313 31.4528H4.09947C4.12331 31.451 4.14532 31.451 4.16916 31.451C4.40941 31.451 4.57997 31.5005 4.68267 31.5995C5.04947 31.9553 5.52447 32.1332 5.99763 32.1332C6.18653 32.1332 6.37543 32.1039 6.55883 32.0488H6.5625C6.85227 32.2212 7.18605 32.3148 7.52901 32.3148C7.75092 32.3148 7.97466 32.2763 8.19291 32.1937C9.16858 31.8269 9.66192 30.7431 9.29329 29.7692C8.96318 28.8926 8.99435 27.9627 9.39233 26.9852H9.38683C9.59957 26.6496 9.87833 26.4772 10.2268 26.4644H10.2323ZM10.1956 22.6992C8.39831 22.6992 7.02466 23.5245 6.07649 25.1769C6.04165 25.2374 6.01047 25.2998 5.98296 25.3622C5.62534 26.1874 5.40342 27.0036 5.32273 27.8124C4.96327 27.7298 4.58547 27.6876 4.18383 27.6876C4.07562 27.6876 3.96742 27.6913 3.85555 27.6968C3.82437 27.6986 3.79502 27.7005 3.76385 27.7041C2.92755 27.7922 2.21414 28.0324 1.62726 28.4267C1.15593 28.744 0.781797 29.1457 0.504867 29.6317C0.370986 29.8664 0.262781 30.1103 0.182086 30.3616C0.0885534 30.6477 0.0317001 30.9411 0.00969239 31.2401C-0.0930104 32.6816 0.620407 34.1487 2.15361 35.6434C2.18296 35.6728 2.21414 35.7021 2.24715 35.7278C3.46124 36.7658 5.0513 37.5086 7.01549 37.9579L7.02466 37.9598C8.08654 38.1963 9.2071 38.3632 10.3882 38.4586L10.4175 38.4604C11.7838 38.5485 12.6696 38.5925 13.0768 38.5925C13.1171 38.5925 13.152 38.5925 13.1813 38.5906C13.196 38.5906 13.2107 38.5906 13.2235 38.5888H13.2272C14.0286 38.5576 14.6375 38.2477 15.052 37.6627C15.0758 37.6296 15.0978 37.5948 15.1675 37.4628H15.1712L15.1419 37.5233C15.4133 37.0593 15.5031 36.5788 15.4114 36.0799L15.3968 36.0139C15.3436 35.7388 15.3216 35.5297 15.3289 35.3885H15.3253C15.7471 33.1474 15.9635 31.7352 15.9745 31.1557C15.9763 31.1062 15.9763 31.0567 15.9745 31.009H15.9708C15.9965 29.8792 15.8754 28.8119 15.604 27.8013L15.593 27.7647C14.7512 24.8615 13.1593 23.1871 10.8173 22.7414C10.7403 22.7267 10.6614 22.7157 10.5826 22.7102C10.4524 22.7029 10.3222 22.6992 10.1956 22.6992Z" fill="#170F49"/>
<mask id="mask1_280_1082" style="mask-type:luminance" maskUnits="userSpaceOnUse" x="47" y="0" width="20" height="18">
<path d="M47.876 0H66.6559V17.8336H47.876V0Z" fill="white"/>
</mask>
<g mask="url(#mask1_280_1082)">
<path d="M61.6494 3.92099C62.2326 4.17224 62.5737 4.77562 62.6764 5.73296H62.6746C62.7369 6.58209 62.2583 7.74116 61.2422 9.20835H61.2404C60.7012 9.93094 60.1804 10.5453 59.6815 11.0497H59.676C58.8507 11.7392 58.1557 12.3628 57.5926 12.9185C56.6316 11.8291 55.6376 10.7599 54.6069 9.71269H54.6032C53.9393 8.96259 53.4442 8.37389 53.1177 7.94657C52.3823 6.95439 51.9715 6.17861 51.8853 5.61925H51.8816C51.8688 4.77929 52.0595 4.22176 52.452 3.95033H52.4557C53.3818 4.09521 54.0365 4.6124 54.418 5.50371C54.6289 5.99705 55.0269 6.35468 55.4946 6.5289H55.4909C55.6174 6.6958 55.7752 6.84618 55.9604 6.96906C56.2813 7.17997 56.6408 7.28084 56.9984 7.28084C57.611 7.28084 58.2107 6.98373 58.5738 6.43537C59.5275 4.99386 60.5508 4.15573 61.6457 3.92099H61.6494ZM61.7869 0.115479C61.7228 0.115479 61.6586 0.117312 61.5944 0.124648C59.8759 0.30071 58.3336 1.07098 56.9727 2.43913C55.8632 0.997622 54.275 0.236521 52.2044 0.152158C52.1787 0.150324 52.1549 0.150324 52.1292 0.150324C51.9275 0.150324 51.7294 0.181502 51.5387 0.243857C49.1893 1.01596 48.0468 2.84811 48.111 5.74213C48.1128 5.78798 48.1146 5.83016 48.1183 5.87417C48.2357 7.13595 48.8904 8.57196 50.0843 10.1822H50.0862L50.099 10.2005C50.4805 10.7049 51.0398 11.3724 51.7771 12.2032C51.7991 12.2289 51.8211 12.2528 51.8449 12.2784C53.2938 13.7474 54.6711 15.2605 55.9751 16.8175C56.0539 16.9129 56.1438 16.9991 56.241 17.0761C56.6995 17.4447 57.1525 17.6281 57.6018 17.6281C58.0658 17.6281 58.5261 17.4301 58.981 17.0358C59.1222 16.9147 59.2432 16.7735 59.3404 16.6176C59.687 16.0674 60.6352 15.1486 62.1867 13.8612C62.2308 13.8245 62.2748 13.7841 62.317 13.7419C62.968 13.089 63.6319 12.3078 64.3087 11.4L64.3453 11.3486C65.8914 9.11665 66.5865 7.12311 66.4306 5.36799L66.4269 5.33498C66.1206 2.4483 64.7121 0.72436 62.2014 0.161328C62.0657 0.13015 61.9263 0.115479 61.7869 0.115479Z" fill="#170F49"/>
</g>
<path d="M107.455 18.5947C107.952 18.9028 108.355 19.6199 108.664 20.7478C108.72 20.9587 108.812 21.1513 108.93 21.3218H108.924C108.968 21.6648 109.107 22.0022 109.346 22.2883C109.718 22.7358 110.255 22.9687 110.798 22.9687C111.222 22.9687 111.649 22.8257 112.001 22.5341C113.03 21.6813 114.004 21.254 114.923 21.254C115.139 21.254 115.352 21.2778 115.563 21.3255H115.558C116.143 21.7491 116.28 22.3415 115.972 23.1026H115.97C115.631 23.8399 114.712 24.6101 113.214 25.4171C112.829 25.6243 112.366 25.8371 111.829 26.059H111.825C110.294 26.5542 109.03 27.0017 108.036 27.4015C107.684 26.3341 107.226 25.0888 106.663 23.6638H106.659C106.51 23.2218 106.408 22.8514 106.349 22.5543C106.127 21.4117 106.166 20.4378 106.465 19.6346H106.463C106.696 19.0587 107.024 18.7121 107.451 18.5947H107.455ZM107.728 14.7874C107.714 14.7874 107.701 14.7874 107.688 14.7874C105.443 14.835 103.87 15.9831 102.964 18.2316L102.951 18.2627C102.386 19.7428 102.285 21.4117 102.646 23.2713V23.275C102.736 23.7317 102.881 24.2562 103.079 24.8522C103.09 24.8852 103.103 24.9183 103.116 24.9513C104.003 27.1906 104.61 28.9328 104.937 30.1781H104.933C105.168 31.2528 105.786 31.7902 106.787 31.7902C106.98 31.7902 107.185 31.77 107.404 31.7315C107.541 31.7076 107.679 31.671 107.818 31.6233C107.919 31.5884 108.018 31.5444 108.112 31.4931C108.955 31.0327 110.611 30.4037 113.08 29.6077C113.126 29.5931 113.17 29.5766 113.216 29.5582C113.894 29.2813 114.49 29.0044 115.002 28.7293L115.005 28.7274C117.298 27.4932 118.78 26.103 119.451 24.557L119.468 24.5166C120.625 21.6684 119.895 19.4823 117.276 17.9583C117.149 17.8849 117.016 17.8263 116.876 17.7841C116.203 17.5787 115.532 17.476 114.862 17.476C113.824 17.476 112.792 17.7236 111.765 18.2187C110.985 16.4526 109.823 15.3375 108.275 14.868C108.097 14.8149 107.913 14.7874 107.728 14.7874Z" fill="#170F49"/>
</svg>
