<svg width="120" height="126" viewBox="0 0 120 126" fill="none" xmlns="http://www.w3.org/2000/svg">
<mask id="mask0_280_1081" style="mask-type:luminance" maskUnits="userSpaceOnUse" x="0" y="0" width="120" height="126">
<path d="M0 0H120V125.961H0V0Z" fill="white"/>
</mask>
<g mask="url(#mask0_280_1081)">
<path d="M102.099 49.7274C102.099 50.6701 101.968 51.4512 101.349 52.0044C100.501 52.7835 100.176 53.8256 99.7845 54.8657C99.4924 55.6779 99.0366 56.459 98.5808 57.2069C96.9523 59.9398 95.3548 62.7037 93.6621 65.4034C86.6591 76.4611 79.6561 87.5188 72.622 98.5433C70.7324 101.504 68.7786 104.463 66.5306 107.162C65.5527 108.333 64.5105 109.47 63.1431 110.285C61.0588 111.52 59.2355 111.391 57.3791 109.796C56.6291 109.145 55.9785 108.397 55.4232 107.585C47.2807 96.1047 39.1381 84.6243 32.5909 72.1018C30.5398 68.2004 28.4886 64.3301 26.3711 60.4598C24.9374 57.8575 23.4394 55.2884 21.8751 52.7835C21.1914 51.6791 21.1271 50.7675 21.4193 49.4353C22.103 46.085 24.0899 43.7106 26.3711 41.4999C31.2898 36.7822 36.3369 32.164 41.2887 27.4815C42.2335 26.603 43.3068 26.3109 44.5458 26.1161C54.7063 24.587 64.9664 24.6844 75.1953 24.8149C77.0517 24.8481 78.9392 24.8792 80.7956 24.9455C82.5547 25.0097 83.7605 25.2376 85.389 25.9524C86.3669 26.8309 87.9623 30.3428 88.7766 31.3186C92.0004 35.2221 95.1601 39.0924 98.3529 42.9958C99.395 44.2638 100.34 45.6292 101.251 46.9946C101.805 47.8731 102.13 48.8158 102.099 49.7274ZM94.9322 54.0846C94.64 53.9541 94.5406 53.8898 94.4432 53.8898C88.6129 53.9541 82.7826 54.0204 76.9523 54.1178C76.0095 54.1178 75.6511 54.6378 75.4874 55.5163C74.9653 58.3133 74.4784 61.1435 73.8258 63.9075C71.0577 75.9079 68.126 87.8441 64.9995 99.7471C64.869 100.3 64.3158 100.885 64.9664 101.601C66.0748 100.659 66.7585 99.3886 67.5396 98.218C80.6009 78.5433 93.0757 58.4749 94.9322 54.0846ZM61.1893 95.7794C61.5477 94.9341 61.6451 94.7393 61.6783 94.5425C64.4795 83.1284 67.3117 71.7123 70.0798 60.2961C70.4714 58.7029 70.6351 57.0453 70.863 55.4189C70.9603 54.5736 70.6019 54.182 69.8208 54.0846C69.4934 54.0535 69.1682 54.0204 68.8429 54.0204C62.4594 53.8898 56.0759 53.7593 49.6923 53.6309C49.1702 53.6309 48.5839 53.5314 48.0307 54.0846C49.3339 57.3706 50.7987 60.6546 51.9714 64.0691C53.1773 67.4835 54.1863 70.9643 55.2285 74.4451C56.2706 77.9238 57.1822 81.4378 58.1933 84.9165C59.2023 88.3641 59.7555 91.9091 61.1893 95.7794ZM57.7044 102.252C57.607 101.504 57.607 101.081 57.4765 100.659C55.9453 94.5756 54.5116 88.4946 52.8831 82.4447C50.8319 74.8015 48.5839 67.2246 45.7827 59.8092C45.2626 58.4107 44.9353 56.8174 43.3731 56.0363C42.8841 55.7773 42.623 55.2241 42.5899 54.6709C42.5257 53.7282 42.0698 53.3366 41.1251 53.3056C36.8259 53.2393 32.5267 53.1419 28.2607 53.0777C28.0638 53.0777 27.8691 53.2393 27.7054 53.3366C27.7054 53.5314 27.5749 53.7925 27.6743 53.9541C36.4674 69.6963 44.7737 85.7307 55.6511 100.203C56.1401 100.853 56.4343 101.763 57.7044 102.252ZM51.7435 49.11C56.1069 49.2384 59.7224 49.369 63.3068 49.4663C66.4001 49.5637 69.4624 49.5969 72.5557 49.6611C73.2394 49.6611 73.5979 49.1411 73.3057 48.5879C70.5045 43.6132 67.6702 38.6697 64.8358 33.693C64.6411 33.3677 64.4132 32.9451 63.6963 33.1087C62.1009 35.7421 60.5056 38.4749 58.5828 41.0109C56.5959 43.7106 54.4473 46.1492 51.7435 49.11ZM83.8247 33.3677C83.7274 33.5956 83.5657 33.8567 83.4663 34.1488C82.0678 39.1255 80.7645 44.1001 78.3218 48.6873C78.0276 49.2384 78.386 49.6943 79.136 49.6611C81.2204 49.63 83.3047 49.5637 85.389 49.4995C88.8097 49.4021 92.1973 49.2716 95.6159 49.1411C96.658 49.11 96.886 48.5236 96.2996 47.6141C96.1691 47.4172 96.0717 47.2556 95.9101 47.092C92.2615 42.7016 88.646 38.2781 84.9974 33.8878C84.7384 33.5625 84.4442 33.2061 83.8247 33.3677ZM59.9192 29.4663C55.0005 29.2384 50.2124 29.7916 45.3911 30.2143C44.5768 30.2785 44.3179 30.8649 44.3821 31.6128C44.4484 32.3608 44.5126 33.1398 44.6431 33.8878C45.1632 36.8154 45.6853 39.7098 46.2385 42.6042C46.4022 43.5801 46.5327 44.556 46.7606 45.5318C46.9885 46.5408 47.5417 46.6693 48.3891 45.9545C48.7144 45.6624 49.0397 45.3681 49.3339 45.0429C53.3389 40.9467 56.7596 36.3927 59.4945 31.3518C59.7555 30.8649 60.114 30.4091 59.9192 29.4663ZM40.2777 34.7352C39.7576 34.6689 39.4634 34.9942 39.1381 35.2863C36.0448 38.2781 32.9494 41.2389 29.9203 44.2638C28.9755 45.1734 28.1301 46.2155 27.2827 47.2225C27.0217 47.5478 26.6322 47.9394 26.9885 48.362C27.1522 48.5568 27.5438 48.6873 27.8359 48.6873C32.2325 48.7515 36.6311 48.8158 41.0277 48.8489C42.4283 48.8489 42.6893 48.4905 42.4614 46.9946C41.9393 43.5159 41.3861 40.0351 40.8329 36.5875C40.7335 35.9058 40.7998 35.2221 40.2777 34.7352ZM67.637 29.5637C69.2655 32.425 70.7324 34.9942 72.1973 37.5302C73.1089 39.1566 73.9895 40.783 74.9342 42.4095C75.0648 42.6705 75.3901 42.8964 75.6822 42.9627C76.0738 43.0601 76.1712 42.6374 76.2685 42.3452C77.6049 38.8645 78.6471 35.2863 79.4945 31.6439C79.6229 31.0265 79.7866 30.3428 79.4613 29.7253C76.7907 29.3027 71.0577 29.2053 67.637 29.5637ZM104.183 95.3899C103.205 94.9341 102.163 94.5114 101.121 94.2193C97.636 93.1771 94.0537 92.6239 90.6972 91.2254C90.3077 91.0638 89.8519 90.9664 89.4271 90.9332C88.5487 90.869 87.6681 91.5196 87.4733 92.3649C87.2786 93.1771 87.5065 93.894 88.2234 94.3809C88.4824 94.5756 88.8097 94.673 89.1019 94.8367C93.3037 96.7884 97.8639 97.698 102.227 99.1607C102.716 99.3244 103.336 99.2602 103.856 99.1607C104.77 98.9991 105.387 98.1206 105.356 97.2422C105.323 96.3968 104.898 95.7152 104.183 95.3899ZM117.145 26.4082C116.2 26.7977 115.516 27.4815 114.833 28.2294C112.326 30.9623 109.786 33.693 107.31 36.4258C106.885 36.9127 106.495 37.4659 106.201 38.0191C105.843 38.6697 106.137 39.5482 106.788 40.0682C107.341 40.5241 107.96 40.6857 108.613 40.3935C109.002 40.2298 109.394 39.9709 109.686 39.6766C112.782 36.5875 115.842 33.4983 118.904 30.3759C119.457 29.8227 119.849 29.1721 119.849 28.3931C119.915 26.9614 118.415 25.8882 117.145 26.4082ZM10.8671 85.6976C13.5709 83.8101 16.2416 81.8915 18.9123 79.9398C19.3349 79.6166 19.7265 79.1918 20.0187 78.7381C20.5408 77.957 20.4434 76.9811 19.8571 76.2974C19.2707 75.6468 18.5207 75.452 17.7727 75.7463C17.0559 76.0052 16.4032 76.4279 15.7858 76.8837C13.1462 78.8665 10.5087 80.8514 7.90224 82.8674C7.57695 83.1284 7.25166 83.4537 7.02375 83.8101C6.37318 84.8522 7.21851 86.4455 8.61911 86.5429C9.36914 86.6071 10.1502 86.2176 10.8671 85.6976ZM38.6492 6.40616C40.1471 9.56166 41.6472 12.7482 43.2094 15.8706C43.4373 16.3264 43.8931 16.7159 44.3179 17.0412C44.8711 17.4639 45.5216 17.5302 46.1743 17.1717C46.9222 16.7491 47.3138 16.0343 47.1833 15.2532C47.1191 14.9279 47.0196 14.6026 46.8911 14.3104C45.5548 11.3186 44.2516 8.29366 42.8841 5.30184C42.623 4.71549 42.2646 4.13122 41.8419 3.64225C41.2556 2.92745 40.2134 2.76377 39.4323 3.18644C38.6492 3.57802 38.4212 4.29283 38.3902 5.26869C38.4544 5.56083 38.4544 6.01664 38.6492 6.40616ZM104.931 62.9958C104.15 63.1264 103.497 63.7438 103.4 64.4917C103.303 65.2086 103.531 65.826 104.117 66.2155C104.573 66.5098 105.062 66.7687 105.584 66.8993C108.741 67.7778 111.934 68.6562 115.127 69.4684C115.647 69.5989 116.233 69.6321 116.755 69.5658C117.57 69.4684 118.187 69.0126 118.448 68.2004C118.742 67.3551 118.448 66.3461 117.634 65.8903C116.983 65.5339 116.233 65.2397 115.516 65.0449C112.846 64.3944 110.175 63.7769 107.504 63.1595C106.854 63.029 106.201 62.9647 105.681 62.8674C105.356 62.9647 105.126 62.9647 104.931 62.9958ZM79.7535 121.309C77.2796 118.676 74.8369 116.009 72.3278 113.407C71.6441 112.69 70.6351 112.69 69.9182 113.212C69.0708 113.83 68.876 114.772 69.4292 115.813C69.7545 116.399 70.0798 116.952 70.5045 117.472C72.4583 119.683 74.4453 121.896 76.4322 124.073C76.888 124.562 77.4101 124.952 78.0939 125.082C79.3308 125.343 80.6009 124.301 80.5035 122.838C80.4061 122.449 80.2093 121.798 79.7535 121.309ZM103.825 9.72326C103.075 9.3006 102.327 9.33375 101.641 9.78956C101.185 10.0817 100.796 10.5044 100.535 10.9933C98.9061 13.8546 97.3418 16.7491 95.7796 19.6435C95.4211 20.3272 95.2264 21.0752 95.3237 21.8874C95.388 22.6022 95.7796 23.1243 96.4301 23.4164C97.1139 23.7086 98.0587 23.4806 98.5476 22.8964C98.6781 22.7327 98.8398 22.5711 98.9392 22.3763C100.468 19.2208 102.424 16.2622 104.247 13.2683C104.606 12.684 104.801 12.0666 104.801 11.416C104.703 10.668 104.442 10.0817 103.825 9.72326ZM69.624 8.0989C69.624 6.56984 69.6571 5.04078 69.624 3.51172C69.624 2.86115 69.5597 2.21057 69.4292 1.56C69.2345 0.714666 68.3228 0.0640908 67.5086 0.0330123C66.6612 -0.000138065 65.7495 0.617287 65.5527 1.46262C65.3579 2.1795 65.2606 2.95853 65.2937 3.70648C65.3911 6.7646 65.5859 9.78956 65.7495 12.8456C65.7806 13.3677 65.8801 13.952 66.0748 14.441C66.4001 15.22 67.0196 15.6116 67.8981 15.5784C68.6792 15.5453 69.3961 15.0252 69.5597 14.2441C69.6903 13.7241 69.7545 13.1709 69.7545 12.6177C69.7876 11.0907 69.7545 9.56166 69.7545 8.0326C69.6903 8.0989 69.6571 8.0989 69.624 8.0989ZM22.5588 19.513C20.7024 17.3354 18.8149 15.1889 16.9253 13.0424C16.5669 12.6177 16.1442 12.2613 15.6884 11.9692C14.7436 11.3186 13.6352 11.3497 12.9514 12.0334C12.2346 12.7482 12.1372 13.8546 12.9846 14.7C15.2968 17.0743 17.1532 19.8072 19.2707 22.3432C19.6292 22.7658 20.085 23.1243 20.5408 23.3522C21.844 24.0007 23.3751 23.0269 23.3751 21.5952C23.4394 20.781 23.0478 20.0993 22.5588 19.513ZM2.69142 57.1427C5.85106 56.8817 9.04385 56.6227 12.2014 56.3616C12.4293 56.3285 12.6262 56.2974 12.8541 56.2311C14.1241 55.8747 14.8742 54.9962 14.7436 53.923C14.6442 52.8498 13.7015 52.1018 12.4293 52.0044C12.2014 51.9713 11.9735 51.9713 11.7788 52.0044C8.74964 52.3939 5.68738 52.7835 2.65827 53.2061C2.23561 53.2724 1.81294 53.434 1.42135 53.5977C0.509717 54.0204 0.0849787 54.7683 0.215508 55.6779C0.346038 56.5564 1.02976 57.1427 2.07193 57.2069C2.29983 57.2069 2.49666 57.2069 2.72457 57.2069C2.69142 57.2069 2.69142 57.1759 2.69142 57.1427ZM14.5468 34.0183C11.9735 32.164 9.40022 30.3428 6.79584 28.4905C6.63217 28.36 6.43741 28.2294 6.24265 28.1652C5.45947 27.9041 4.7426 27.9041 4.12517 28.5216C3.50568 29.1411 3.34407 30.148 3.89726 30.9291C4.1894 31.3849 4.58099 31.8076 5.00366 32.1329C7.25166 33.8567 9.53075 35.5805 11.7788 37.3043C12.3982 37.7912 13.082 38.1165 13.8962 38.0834C14.8742 38.0523 15.7858 37.2049 15.85 36.1316C15.7526 35.2552 15.2968 34.5383 14.5468 34.0183ZM24.3842 106.773C26.4353 104.657 28.4886 102.577 30.5398 100.431C30.9956 99.975 31.3872 99.4218 31.6793 98.8375C32.0709 98.0875 31.9404 97.3395 31.354 96.7221C30.7677 96.0715 29.7897 95.8436 28.9755 96.2663C28.586 96.4631 28.2275 96.7221 27.9022 97.0143C25.9464 99.0634 23.9926 101.146 22.0719 103.228C21.5498 103.779 21.1914 104.463 21.0608 105.244C20.8661 106.381 21.8109 107.455 23.1783 107.39C23.5036 107.423 23.9926 107.162 24.3842 106.773ZM46.6943 114.058C46.1411 114.383 45.619 114.837 45.2295 115.359C43.4705 117.764 41.7756 120.172 40.0829 122.61C39.8881 122.872 39.7908 123.197 39.6602 123.489C39.3992 124.173 39.6271 124.79 40.0829 125.31C40.5719 125.863 41.2224 125.961 41.9062 125.766C42.2978 125.635 42.7536 125.441 43.0146 125.146C45.2295 122.577 47.3138 119.88 49.1702 117.016C49.3981 116.66 49.4624 116.204 49.5287 116.009C49.5287 114.414 47.9002 113.374 46.6943 114.058Z" fill="#170F49"/>
</g>
</svg>
