<svg width="150" height="112" viewBox="0 0 150 112" fill="none" xmlns="http://www.w3.org/2000/svg">
<g clip-path="url(#clip0_120_346)">
<path d="M112.74 0.529452C123.122 6.48924 131.799 15.5011 137.366 26.2653C140.155 31.6474 143.038 38.156 141.804 44.3758C140.673 50.0563 135.887 53.3395 130.762 54.88C124.676 56.7093 118.016 56.459 111.76 55.9776C104.431 55.4095 97.1767 54.1097 89.8754 53.2047C86.3803 52.7714 82.8286 52.3189 79.3052 52.3671C76.4695 52.396 73.5678 53.0121 71.7496 55.4384C68.4523 59.8192 70.7792 66.3952 73.1439 70.6123C76.4695 76.5624 81.0857 81.6461 85.9752 86.2772C90.8646 90.9083 96.0273 94.9714 101.595 98.553C112.25 105.418 125.967 112.292 138.808 108.191C141.493 107.334 144.272 105.755 145.478 103.02C146.684 100.286 146.137 97.4843 144.894 95.0002C142.096 89.3967 136.415 85.7573 131.101 82.994C125.232 79.9515 118.911 77.9296 112.533 76.341C106.155 74.7524 99.758 73.6259 93.2764 72.9038C67.0297 69.9865 40.1706 74.1265 15.8646 84.6019C12.8311 85.9113 9.83525 87.317 6.87709 88.7998C6.08572 89.1945 4.91753 88.896 4.21097 88.4435C3.69281 88.1065 3.08044 87.3652 3.88123 86.9415C16.0154 80.5677 29.0728 76.0136 42.4222 73.183C55.7717 70.3523 69.7335 69.2259 83.4692 69.9576C97.2049 70.6893 110.969 73.0001 123.913 77.6408C130.376 79.9612 136.594 83.0807 142.03 87.3652C146.297 90.7254 151.027 96.4926 149.802 102.433C148.464 108.951 140.73 110.896 135.2 111.426C128.237 112.08 121.219 110.424 114.766 107.873C101.953 102.818 90.1204 94.2685 80.4074 84.4286C75.7064 79.6627 71.1655 74.3672 68.3392 68.186C66.2478 63.6223 65.0042 57.0271 68.9798 53.0892C71.2314 50.8651 74.4722 50.2585 77.4869 50.1815C81.0669 50.0948 84.6939 50.5281 88.2456 50.9421C95.7729 51.8279 103.253 53.2143 110.809 53.8402C117.093 54.3601 124.073 54.6874 130.065 52.2997C132.533 51.3176 134.823 49.8445 136.405 47.6301C138.337 44.9342 138.742 41.497 138.29 38.2523C137.395 31.8496 134.069 25.6395 130.555 20.3633C127.041 15.0871 122.858 10.5427 118.025 6.65291C115.67 4.75618 113.155 3.08089 110.545 1.57891C109.999 1.26119 109.565 0.587221 110.234 0.163585C110.903 -0.260051 112.109 0.144329 112.74 0.500568V0.529452Z" fill="#170F49"/>
<path d="M29.6102 87.7986C20.698 88.8577 11.7763 89.9168 2.7982 90.3115C2.06337 90.3404 -1.16801 89.1947 0.452385 88.1837C4.75775 85.4879 8.94065 82.5898 12.9728 79.4799C17.005 76.3701 20.698 72.904 24.6359 69.6882C25.5403 68.9468 29.1485 70.0444 28.1028 71.1805C24.5982 74.9644 20.3965 78.2187 16.3267 81.3382C12.2568 84.4577 7.97971 87.4135 3.6084 90.1479L1.26259 88.0201C9.94868 87.6446 18.5877 86.6529 27.2172 85.6323C28.1499 85.5264 29.2804 85.6901 29.987 86.3929C30.524 86.9225 30.5051 87.7023 29.6196 87.8082L29.6102 87.7986Z" fill="#170F49"/>
</g>
<defs>
<clipPath id="clip0_120_346">
<rect width="150" height="111.57" fill="white" transform="matrix(-1 0 0 1 150 0)"/>
</clipPath>
</defs>
</svg>
