<svg width="99" height="88" viewBox="0 0 99 88" fill="none" xmlns="http://www.w3.org/2000/svg">
<g clip-path="url(#clip0_120_218)">
<path d="M17.1022 62.6611C23.4152 45.9762 30.429 29.5763 37.9667 13.3983C38.5444 12.1508 36.7939 12.0457 36.0418 12.2068C34.7044 12.4985 33.4596 13.4678 32.8736 14.6857C25.1254 30.7942 18.1849 47.2858 11.8464 63.9937C11.3484 65.299 12.9723 65.4073 13.828 65.2174C15.1022 64.9273 16.6256 63.9285 17.1022 62.6611Z" fill="#79DD97"/>
<path d="M34.736 67.2723C39.7694 61.5256 44.8027 55.7788 49.8171 50.0213C50.4101 49.345 51.005 48.0447 49.7049 47.7825C48.4049 47.5204 46.8164 48.4573 46.0131 49.3519C40.9461 55.0921 35.8939 60.8281 30.831 66.583C30.2273 67.2783 29.611 68.6165 30.9448 68.8853C32.2786 69.1541 33.9114 68.2048 34.7213 67.2764L34.736 67.2723Z" fill="#79DD97"/>
<path d="M53.1144 77.8318C66.0151 69.1955 78.9387 60.5848 91.827 51.904C92.5411 51.4338 94.2304 50.229 93.5981 49.1579C92.997 48.142 91.0023 48.936 90.3433 49.3749C77.4155 57.9708 64.5148 66.6071 51.5994 75.2475C50.8747 75.7366 49.1409 76.9537 49.7963 78.0505C50.4015 79.0812 52.4406 78.2748 53.1251 77.8128L53.1144 77.8318Z" fill="#79DD97"/>
</g>
<defs>
<clipPath id="clip0_120_218">
<rect width="83" height="68" fill="white" transform="translate(0 22.2222) rotate(-15.5295)"/>
</clipPath>
</defs>
</svg>
