<svg width="228" height="423" viewBox="0 0 228 423" fill="none" xmlns="http://www.w3.org/2000/svg">
<g clip-path="url(#clip0_120_589)">
<path d="M227.297 38.471C209.492 36.802 191.252 35.1589 173.166 39.1704C158.115 42.4746 133.994 52.315 134.471 72.8053C134.676 81.9065 139.657 89.7465 144.783 96.1275C150.538 103.304 156.987 109.805 163.462 116.199C176.662 129.238 190.538 141.691 201.852 156.79C207.378 164.153 212.45 172.175 216.048 180.962C219.647 189.749 221.317 199.08 218.075 208.425C210.953 228.978 186.792 232.951 170.022 235.535C150.613 238.498 131.176 238.643 111.768 240.822C102.21 241.892 92.5228 243.309 83.1153 246.132C74.7955 248.642 66.715 252.943 64.2931 262.737C59.2875 282.994 72.2754 300.626 70.8316 320.57C69.295 341.901 52.5232 356.897 35.9648 366.563C31.7415 369.039 27.3912 371.222 23.0313 373.329C21.4515 374.096 20.5211 373.265 20.8493 371.481C21.2118 369.569 22.9715 367.263 24.6216 366.432C40.0905 358.695 61.4106 348.094 64.268 327.621C65.6341 317.773 62.8794 308.21 60.5377 299.159C58.0758 289.603 56.0274 279.728 57.5929 269.42C59.1584 259.111 65.0441 249.865 73.5023 244.301C81.9605 238.736 91.0601 237.064 99.983 235.458C119.511 231.928 139.088 231.701 158.65 229.851C168.245 228.94 177.863 227.635 187.382 225.336C195.079 223.484 206.318 221.169 211.241 213.218C216.164 205.267 212.971 193.493 209.704 185.943C205.874 177.056 200.668 168.952 194.893 161.53C183.334 146.656 169.404 134.276 156.257 121.117C149.736 114.585 143.135 107.946 137.598 100.412C132.834 93.9265 128.733 86.3011 128.575 77.4818C128.173 56.4291 148.139 41.675 164.679 35.4719C182.119 28.9456 200.52 28.9941 218.109 30.284C222.52 30.6003 226.931 31.0122 231.342 31.424C234.005 31.6733 229.862 38.7018 227.315 38.4787L227.297 38.471Z" fill="#170F49"/>
</g>
<defs>
<clipPath id="clip0_120_589">
<rect width="400" height="139.532" fill="white" transform="matrix(-0.397321 0.91768 0.91768 0.397321 158.928 0)"/>
</clipPath>
</defs>
</svg>
