<svg width="65" height="71" viewBox="0 0 65 71" fill="none" xmlns="http://www.w3.org/2000/svg">
<g clip-path="url(#clip0_120_323)">
<path d="M22.7712 24.6974C33.3736 22.1984 43.9759 19.6995 54.5783 17.2005C57.5851 16.4898 60.6 15.7941 63.5996 15.0436C64.0115 14.9441 64.4239 14.6063 64.0636 14.2062C63.7033 13.8061 62.8522 13.8402 62.3757 13.946C51.7377 16.309 41.1471 18.9181 30.5447 21.4171L21.4996 23.5482C21.0687 23.6484 20.642 24.0135 21.018 24.4244C21.394 24.8354 22.2855 24.813 22.7844 24.695L22.7712 24.6974Z" fill="white"/>
<path d="M61.9732 14.2931C58.2886 26.3418 54.4883 38.3567 50.5683 50.3304C49.451 53.7513 48.3163 57.1672 47.1817 60.5831C46.8803 61.4869 49.2505 61.6888 49.4954 60.9569C53.4849 49.0034 57.3529 37.0145 61.1069 24.9861C62.1779 21.5517 63.2391 18.108 64.2927 14.6685C64.5726 13.7523 62.199 13.5619 61.979 14.2948L61.9732 14.2931Z" fill="white"/>
<path d="M20.9825 24.138C28.6058 33.335 35.0256 43.4298 41.6168 53.3675C43.4653 56.1537 45.3345 58.9333 47.2445 61.681C47.5491 62.1213 48.2232 62.1987 48.7185 62.1361C48.9653 62.1077 49.8805 61.8538 49.5759 61.4134C42.7063 51.5263 36.42 41.232 29.2829 31.5304C27.2867 28.8204 25.2256 26.1604 23.0756 23.5687C22.5921 22.9884 20.2689 23.2708 20.9842 24.1323L20.9825 24.138Z" fill="white"/>
<path d="M61.919 13.9196C53.2608 19.264 44.6879 24.7463 36.2037 30.3549C33.7855 31.9528 31.3754 33.5656 28.9695 35.1859C28.5009 35.5011 29.0772 35.914 29.3845 36.0225C29.9082 36.2067 30.5756 36.1566 31.0367 35.8455C39.4741 30.1605 47.9945 24.6001 56.6059 19.1793C59.0586 17.6354 61.5212 16.1006 63.9879 14.5734C64.4779 14.2707 63.8628 13.8402 63.5729 13.7368C63.0318 13.5476 62.4015 13.621 61.9207 13.9138L61.919 13.9196Z" fill="white"/>
<path d="M58.903 14.6401C52.5543 22.1584 46.354 29.8141 40.33 37.5965C38.6194 39.8025 36.9244 42.0193 35.2393 44.2454C34.9142 44.6714 35.8098 44.9578 36.0653 45.0072C36.549 45.0919 37.2337 45.0469 37.5589 44.6208C43.4963 36.7692 49.5928 29.0393 55.8566 21.4461C57.634 19.2909 59.4196 17.1507 61.2225 15.0156C61.5691 14.6021 60.6289 14.2964 60.3966 14.2537C59.888 14.1681 59.2553 14.2283 58.903 14.6401Z" fill="white"/>
<path d="M35.1387 43.6446C32.8762 45.5264 30.5249 47.2819 28.2024 49.0897C27.7892 49.4085 28.2722 49.7754 28.5928 49.8814C29.091 50.0456 29.721 50.016 30.1614 49.7114C32.5784 48.0316 34.8756 46.1599 37.1382 44.2781C37.5448 43.9386 37.0775 43.5826 36.7396 43.4715C36.2686 43.3215 35.5453 43.305 35.1387 43.6446Z" fill="white"/>
<path d="M29.4444 36.2471C28.5989 41.1031 27.6086 45.9606 26.9474 50.8515C26.8447 51.6124 29.0674 51.696 29.2357 50.904C30.2557 46.0739 30.9599 41.1642 31.8013 36.3009C31.9313 35.5542 29.5915 35.3988 29.4444 36.2471Z" fill="white"/>
<path d="M30.8153 50.9758C32.0544 50.3645 33.3164 49.8038 34.6013 49.2937C35.8862 48.7836 37.1629 48.4092 38.4907 47.9242C38.8855 47.7757 38.9299 47.387 38.6009 47.1592C38.1837 46.868 37.5655 46.8571 37.0914 46.9762C35.6916 47.3209 34.3105 47.8594 32.9709 48.3849C31.6313 48.9104 30.3883 49.4704 29.1342 50.0899C28.9807 50.1644 28.7746 50.3114 28.7744 50.5059C28.7741 50.7004 28.9669 50.857 29.1188 50.939C29.5899 51.1957 30.3306 51.2172 30.8211 50.9775L30.8153 50.9758Z" fill="white"/>
<path d="M33.7994 48.2122C34.6801 47.7537 35.5649 47.3026 36.4473 46.8383C36.5893 46.7604 36.7754 46.639 36.7797 46.452C36.7841 46.265 36.6052 46.1249 36.4633 46.0521C36.2223 45.9316 35.9453 45.8696 35.6805 45.874C35.4156 45.8783 35.1283 45.8949 34.8909 46.0202C34.0003 46.4696 33.1138 46.9264 32.2273 47.3833C32.0795 47.4594 31.8918 47.5867 31.8874 47.7737C31.8831 47.9607 32.066 48.1082 32.208 48.181C32.449 48.3015 32.7317 48.3652 33.0024 48.3626C33.273 48.3599 33.562 48.3375 33.7994 48.2122Z" fill="white"/>
<path d="M30.8636 48.5294L30.625 48.5728C30.3598 48.621 30.7973 48.5415 30.5852 48.58L31.6493 49.5369C33.174 48.6135 34.7315 47.7499 36.3071 46.9104C36.4491 46.8326 36.6351 46.7111 36.6395 46.5241C36.6438 46.3371 36.465 46.197 36.323 46.1242C35.8798 45.9008 35.203 45.854 34.7448 46.0906C33.1586 46.9019 31.6076 47.7863 30.087 48.7171C29.9641 48.7942 29.7399 48.9171 29.7546 49.1034C29.7662 49.2574 29.8616 49.3606 29.9869 49.4474C30.3959 49.7236 30.9587 49.7309 31.4237 49.6217C31.6051 49.5805 31.7833 49.5509 31.9573 49.5138C32.2846 49.4461 32.7418 49.0837 32.3711 48.7622C31.9634 48.4172 31.3483 48.4386 30.8578 48.5278L30.8636 48.5294Z" fill="white"/>
<path d="M35.2115 47.7831C35.8736 47.1918 36.5357 46.6004 37.1838 45.9924C37.307 45.8714 37.3856 45.7312 37.3104 45.5586C37.2352 45.386 36.9711 45.2588 36.7975 45.2081C36.5199 45.1271 36.2172 45.089 35.9289 45.1304C35.6937 45.1622 35.4326 45.2179 35.248 45.3774C34.5702 45.9579 33.9105 46.5625 33.2467 47.1597C33.1178 47.279 33.0433 47.4267 33.1185 47.5993C33.1937 47.7718 33.4636 47.9008 33.6371 47.9514C33.9206 48.0341 34.2291 48.0739 34.519 48.0267C34.7543 47.9949 35.0269 47.9426 35.2132 47.7773L35.2115 47.7831Z" fill="white"/>
<path d="M35.3048 46.3231C35.5058 46.796 35.7068 47.2688 35.921 47.7393C35.9661 47.8215 36.0336 47.8914 36.1211 47.9357C36.2134 48.0066 36.3182 48.056 36.4339 48.0898C36.5727 48.1303 36.7092 48.1575 36.8506 48.1674C37.002 48.1864 37.1526 48.1865 37.3025 48.1674L37.5751 48.1152C37.7243 48.0771 37.8612 48.0166 37.9834 47.9205L38.0967 47.7903C38.1502 47.693 38.1541 47.5937 38.1025 47.4908C37.9148 47.0155 37.7138 46.5426 37.5169 46.0772C37.4678 45.9876 37.4044 45.9251 37.3169 45.8808C37.2246 45.8099 37.1139 45.7588 36.9983 45.7251C36.8594 45.6846 36.7172 45.6556 36.5758 45.6457C36.4244 45.6267 36.2738 45.6267 36.1181 45.644L35.8455 45.6963C35.6963 45.7344 35.5577 45.8006 35.4314 45.8893L35.3106 46.0235C35.2554 46.1267 35.2516 46.226 35.3031 46.3289L35.3048 46.3231Z" fill="white"/>
<path d="M10.9006 29.9082L7.43362 31.8089C7.29166 31.8868 7.10727 32.0024 7.10292 32.1894C7.10195 32.3649 7.27741 32.5165 7.41527 32.5818C7.6505 32.7007 7.92164 32.7609 8.18652 32.7566C8.45141 32.7523 8.73701 32.7415 8.96286 32.6128L12.4356 30.7138C12.5775 30.6359 12.7619 30.5203 12.7663 30.3333C12.7672 30.1578 12.5918 30.0062 12.4539 29.9409C12.2187 29.822 11.9476 29.7618 11.6827 29.7661C11.4178 29.7704 11.1322 29.7812 10.9063 29.9099L10.9006 29.9082Z" fill="white"/>
<path d="M18.0447 37.1326L11.7218 40.604C11.5799 40.6818 11.3955 40.7975 11.3895 40.9903C11.3885 41.1657 11.5639 41.3173 11.7059 41.3901C12.1376 41.6102 12.83 41.6679 13.2708 41.4262L19.5995 37.9565C19.7415 37.8787 19.9275 37.7573 19.9319 37.5702C19.9345 37.389 19.7574 37.2432 19.6154 37.1704C19.1838 36.9503 18.4855 36.891 18.043 37.1384L18.0447 37.1326Z" fill="white"/>
<path d="M31.6632 54.4804C29.6451 55.718 27.6253 56.9614 25.613 58.2007C25.4693 58.2843 25.2808 58.3925 25.2806 58.587C25.2779 58.7682 25.4608 58.9157 25.597 58.9868C26.013 59.1961 26.7484 59.2788 27.1752 59.0205C29.1991 57.7845 31.2189 56.5411 33.2371 55.3035C33.3824 55.2141 33.5692 55.1117 33.5769 54.9131C33.5796 54.7319 33.3983 54.5786 33.2564 54.5058C32.8346 54.2949 32.0935 54.2105 31.6666 54.4688L31.6632 54.4804Z" fill="white"/>
<path d="M44.8253 63.9691C42.8679 64.9985 40.9163 66.0296 38.959 67.059C38.817 67.1368 38.6251 67.2565 38.6208 67.4436C38.6165 67.6306 38.7994 67.7781 38.943 67.8451C39.3862 68.0686 40.0688 68.1171 40.527 67.8804C42.4902 66.8527 44.4475 65.8233 46.4049 64.794C46.5527 64.7178 46.7404 64.5906 46.7448 64.4036C46.7491 64.2165 46.5662 64.069 46.4242 63.9962C45.9752 63.7711 45.2869 63.7209 44.827 63.9633L44.8253 63.9691Z" fill="white"/>
</g>
<defs>
<clipPath id="clip0_120_323">
<rect width="50" height="58.871" fill="white" transform="translate(16.4878) rotate(16.2642)"/>
</clipPath>
</defs>
</svg>
