<svg width="421" height="156" viewBox="0 0 421 156" fill="none" xmlns="http://www.w3.org/2000/svg">
<path d="M11.7836 196.77C12.2898 175.552 12.8856 153.826 20.0076 133.146C25.8949 115.931 40.5925 89.0394 64.2523 92.7395C74.7622 94.3749 83.1576 101.44 89.8438 108.453C97.3647 116.328 104.01 124.917 110.526 133.519C123.816 151.057 136.333 169.302 152.267 184.935C160.035 192.569 168.629 199.769 178.31 205.351C187.991 210.933 198.567 214.329 209.831 211.944C234.604 206.706 242.514 178.869 247.802 159.52C253.892 137.123 256.722 114.261 261.903 91.7448C264.451 80.6557 267.419 69.4673 271.976 58.8238C276.021 49.4126 282.108 40.5578 293.781 39.2067C317.921 36.416 336.557 54.4079 359.848 55.7628C384.756 57.2208 404.417 39.7713 417.877 21.7568C421.322 17.1637 424.446 12.3761 427.483 7.56574C428.587 5.82319 427.752 4.60047 425.641 4.71368C423.378 4.84759 420.467 6.56622 419.279 8.38163C408.202 25.4091 393.007 48.8866 368.91 49.115C357.321 49.215 346.625 44.5071 336.466 40.3637C325.739 36.0016 314.585 32.0774 302.435 32.3416C290.285 32.6059 278.773 38.1192 271.172 47.2253C263.571 56.3313 260.388 66.7886 257.307 77.0481C250.545 99.4983 247.6 122.514 242.778 145.261C240.409 156.418 237.581 167.542 233.615 178.397C230.417 187.175 226.197 200.053 216.317 204.631C206.436 209.21 193.24 203.647 184.947 198.644C175.181 192.774 166.511 185.404 158.708 177.468C143.07 161.58 130.643 143.284 117.207 125.789C110.536 117.112 103.753 108.323 95.7888 100.65C88.9319 94.0481 80.6644 88.0516 70.4746 86.5149C46.1535 82.8162 26.3354 104.064 16.8876 122.587C6.94231 142.121 4.4781 163.793 3.56261 184.699C3.3248 189.94 3.19746 195.197 3.07012 200.454C2.99403 203.627 11.6995 199.826 11.7901 196.792L11.7836 196.77Z" fill="white"/>
</svg>
