<svg width="359" height="324" viewBox="0 0 359 324" fill="none" xmlns="http://www.w3.org/2000/svg">
<g opacity="0.15">
<path d="M108.528 83.5018C162.506 76.2345 216.483 68.9672 270.46 61.6999C285.769 59.629 301.111 57.6365 316.403 55.3642C318.501 55.0699 320.718 53.5897 319.12 51.4231C317.523 49.2565 313.271 49.0116 310.848 49.3056C256.76 55.8791 202.787 63.7002 148.81 70.9675L102.761 77.1633C100.567 77.4519 98.2665 79.0607 99.9371 81.2889C101.608 83.5171 106.055 83.8405 108.595 83.4963L108.528 83.5018Z" fill="white"/>
<path d="M308.676 50.8361C284.468 108.997 259.7 166.933 234.357 224.605C227.13 241.084 219.818 257.529 212.507 273.974C210.567 278.324 222.263 280.484 223.839 276.962C249.518 219.424 274.609 161.65 299.153 103.624C306.157 87.056 313.116 70.4372 320.036 53.8351C321.875 49.412 310.156 47.3077 308.704 50.8474L308.676 50.8361Z" fill="white"/>
<path d="M99.8994 79.8455C133.351 129.327 160.377 182.69 188.332 235.355C196.172 250.12 204.119 264.863 212.284 279.467C213.585 281.807 216.902 282.521 219.397 282.451C220.639 282.429 225.317 281.612 224.015 279.272C194.651 226.724 168.387 172.433 137.6 120.677C128.988 106.219 120.028 91.9777 110.592 78.0328C108.469 74.9091 96.771 75.1823 99.9106 79.8176L99.8994 79.8455Z" fill="white"/>
<path d="M308.588 48.9508C262.898 71.3254 217.566 94.4276 172.613 118.201C159.801 124.974 147.022 131.825 134.26 138.715C131.774 140.055 134.441 142.391 135.917 143.08C138.433 144.252 141.779 144.328 144.225 143.005C188.982 118.828 234.091 95.3117 279.586 72.5341C292.543 66.047 305.546 59.6102 318.565 53.2127C321.151 51.9454 318.3 49.5034 316.908 48.8475C314.307 47.6421 311.135 47.7003 308.6 48.9229L308.588 48.9508Z" fill="white"/>
<path d="M293.229 51.0664C257.973 85.3841 223.387 120.458 189.617 156.248C180.029 166.392 170.514 176.597 161.044 186.853C159.218 188.814 163.535 190.676 164.783 191.047C167.148 191.704 170.578 191.813 172.404 189.852C205.777 153.675 239.882 118.181 274.753 83.449C284.648 73.591 294.576 63.8114 304.589 54.0654C306.515 52.1765 301.986 50.1971 300.85 49.8715C298.361 49.1976 295.184 49.1888 293.229 51.0664Z" fill="white"/>
<path d="M160.834 183.815C148.658 192.076 136.102 199.666 123.664 207.53C121.452 208.915 123.677 210.976 125.22 211.66C127.619 212.72 130.769 212.879 133.109 211.578C145.955 204.397 158.299 196.203 170.475 187.942C172.664 186.451 170.512 184.451 168.885 183.734C166.615 182.758 163.023 182.324 160.834 183.815Z" fill="white"/>
<path d="M136.106 144.227C129.532 167.979 122.236 191.669 116.562 215.684C115.68 219.42 126.7 220.92 127.923 217.061C135.353 193.523 141.251 169.434 147.808 145.643C148.819 141.991 137.251 140.078 136.106 144.227Z" fill="white"/>
<path d="M135.749 218.188C142.213 215.75 148.766 213.575 155.409 211.663C162.051 209.751 168.587 208.51 175.431 206.744C177.467 206.198 177.878 204.285 176.352 202.991C174.418 201.339 171.347 200.983 168.929 201.344C161.795 202.377 154.66 204.384 147.738 206.346C140.816 208.308 134.357 210.489 127.815 212.96C127.015 213.256 125.918 213.887 125.822 214.855C125.726 215.822 126.609 216.696 127.324 217.178C129.544 218.685 133.219 219.153 135.777 218.199L135.749 218.188Z" fill="white"/>
<path d="M151.946 205.892C156.552 204.039 161.174 202.226 165.792 200.345C166.536 200.027 167.521 199.514 167.634 198.585C167.747 197.656 166.925 196.872 166.254 196.441C165.114 195.724 163.766 195.28 162.446 195.173C161.126 195.065 159.688 195.008 158.445 195.516C153.794 197.318 149.16 199.159 144.526 201C143.754 201.307 142.758 201.849 142.645 202.777C142.532 203.706 143.37 204.529 144.041 204.961C145.182 205.678 146.558 206.132 147.906 206.251C149.254 206.37 150.703 206.399 151.946 205.892Z" fill="white"/>
<path d="M137.181 206.039L135.973 206.138C134.63 206.249 136.846 206.066 135.772 206.155L140.6 211.435C148.638 207.583 156.809 204.045 165.059 200.635C165.803 200.317 166.788 199.804 166.901 198.875C167.014 197.947 166.192 197.163 165.521 196.731C163.425 195.403 160.08 194.84 157.684 195.794C149.395 199.059 141.246 202.703 133.226 206.594C132.576 206.918 131.401 207.42 131.383 208.354C131.366 209.126 131.79 209.686 132.372 210.179C134.272 211.753 137.069 212.064 139.436 211.747C140.359 211.631 141.26 211.57 142.144 211.47C143.806 211.293 146.258 209.712 144.57 207.932C142.709 206.016 139.638 205.823 137.153 206.028L137.181 206.039Z" fill="white"/>
<path d="M159.181 204.445C162.764 201.825 166.347 199.205 169.868 196.495C170.54 195.953 171 195.293 170.71 194.398C170.42 193.503 169.167 192.741 168.328 192.404C166.986 191.866 165.498 191.529 164.044 191.594C162.858 191.638 161.531 191.787 160.535 192.491C156.879 195.05 153.302 197.737 149.707 200.385C149.008 200.915 148.565 201.614 148.855 202.51C149.145 203.405 150.425 204.178 151.264 204.515C152.634 205.064 154.15 205.413 155.616 205.319C156.802 205.276 158.184 205.148 159.192 204.417L159.181 204.445Z" fill="white"/>
<path d="M160.357 197.224C161.127 199.675 161.896 202.126 162.733 204.571C162.917 205.002 163.219 205.383 163.633 205.646C164.058 206.044 164.555 206.341 165.114 206.565C165.785 206.835 166.451 207.037 167.15 207.155C167.894 207.323 168.644 207.397 169.399 207.375L170.781 207.248C171.542 207.131 172.253 206.897 172.908 206.478L173.535 205.886C173.849 205.428 173.916 204.935 173.71 204.398C173.007 201.941 172.238 199.49 171.485 197.079C171.284 196.608 170.999 196.267 170.585 196.004C170.16 195.606 169.635 195.298 169.075 195.073C168.404 194.804 167.711 194.591 167.012 194.473C166.268 194.304 165.518 194.231 164.735 194.241L163.353 194.368C162.592 194.485 161.87 194.747 161.198 195.127L160.532 195.736C160.207 196.222 160.139 196.714 160.346 197.252L160.357 197.224Z" fill="white"/>
<path d="M46.9184 103.645L28.7399 111.413C27.9955 111.731 27.0216 112.217 26.9088 113.145C26.8184 114.018 27.6176 114.858 28.2718 115.25C29.3844 115.956 30.7043 116.388 32.0245 116.496C33.3447 116.604 34.7712 116.689 35.9578 116.159L54.1643 108.402C54.9087 108.084 55.8826 107.598 55.9954 106.669C56.0858 105.797 55.2866 104.957 54.6324 104.565C53.5198 103.858 52.1999 103.426 50.8797 103.319C49.5595 103.211 48.1329 103.126 46.9464 103.656L46.9184 103.645Z" fill="white"/>
<path d="M78.9478 143.078L45.792 157.27C45.0477 157.588 44.0738 158.073 43.9497 159.03C43.8594 159.902 44.6586 160.742 45.3295 161.174C47.3702 162.479 50.7879 163.104 53.0994 162.116L86.2831 147.935C87.0275 147.617 88.0126 147.104 88.1254 146.175C88.227 145.275 87.4166 144.463 86.7457 144.031C84.7049 142.726 81.2593 142.09 78.9366 143.106L78.9478 143.078Z" fill="white"/>
<path d="M138.26 236.041C127.614 241.216 116.957 246.419 106.339 251.605C105.583 251.951 104.593 252.398 104.497 253.365C104.395 254.266 105.233 255.089 105.876 255.509C107.844 256.753 111.463 257.523 113.713 256.446C124.387 251.282 135.044 246.08 145.69 240.905C146.457 240.531 147.436 240.112 147.572 239.128C147.673 238.227 146.846 237.376 146.175 236.945C144.179 235.689 140.532 234.908 138.282 235.985L138.26 236.041Z" fill="white"/>
<path d="M199.132 289.674C188.89 293.843 178.676 298.022 168.434 302.19C167.69 302.509 166.676 303.011 166.564 303.94C166.451 304.868 167.289 305.691 167.971 306.095C170.068 307.423 173.441 307.997 175.836 307.043C186.106 302.886 196.348 298.717 206.59 294.549C207.363 294.242 208.359 293.7 208.472 292.772C208.585 291.843 207.746 291.02 207.075 290.589C204.951 289.249 201.55 288.664 199.143 289.646L199.132 289.674Z" fill="white"/>
</g>
</svg>
