<svg width="50" height="50" viewBox="0 0 50 50" fill="none" xmlns="http://www.w3.org/2000/svg">
<path d="M50 25C50 38.8071 38.8071 50 25 50C11.1929 50 0 38.8071 0 25C0 11.1929 11.1929 0 25 0C38.8071 0 50 11.1929 50 25Z" fill="#C3EBCF"/>
<path d="M43.2689 24.9999C43.2689 35.0898 35.0895 43.2692 24.9997 43.2692C14.9099 43.2692 6.73047 35.0898 6.73047 24.9999C6.73047 14.9101 14.9099 6.73071 24.9997 6.73071C35.0895 6.73071 43.2689 14.9101 43.2689 24.9999Z" fill="#79DD97"/>
<g clip-path="url(#clip0_504_173)">
<path d="M28.2571 35C27.6143 34.9994 26.9981 34.7438 26.5436 34.2893C26.0892 33.8348 25.8336 33.2186 25.8329 32.5759V27.5C25.8329 27.279 25.7451 27.0671 25.5888 26.9108C25.4325 26.7545 25.2206 26.6667 24.9996 26.6667C24.7785 26.6667 24.5666 26.7545 24.4103 26.9108C24.254 27.0671 24.1662 27.279 24.1662 27.5V32.5759C24.1663 33.108 23.9913 33.6254 23.6682 34.0482C23.3452 34.471 22.892 34.7759 22.3786 34.9158C21.8652 35.0556 21.3201 35.0227 20.8272 34.8222C20.3343 34.6216 19.9211 34.2645 19.6512 33.8059C17.6546 30.3859 14.9996 25.2325 14.9996 20C14.9744 19.3367 15.0865 18.6753 15.3289 18.0573C15.5713 17.4393 15.9387 16.878 16.4081 16.4086C16.8775 15.9392 17.4388 15.5718 18.0568 15.3294C18.6748 15.087 19.3362 14.9749 19.9996 15C21.1071 15.0005 22.2078 15.1734 23.2621 15.5125C23.8217 15.7066 24.4075 15.8148 24.9996 15.8334C25.5916 15.8148 26.1774 15.7066 26.7371 15.5125C27.7913 15.1733 28.892 15.0004 29.9996 15C30.6629 14.9749 31.3243 15.087 31.9423 15.3294C32.5603 15.5718 33.1216 15.9392 33.591 16.4086C34.0604 16.878 34.4278 17.4393 34.6702 18.0573C34.9126 18.6753 35.0247 19.3367 34.9996 20C34.9996 25.2317 32.3446 30.385 30.3479 33.8059C30.1335 34.1697 29.8278 34.4712 29.4611 34.6807C29.0944 34.8901 28.6794 35.0002 28.2571 35ZM24.9996 25C25.6626 25 26.2985 25.2634 26.7673 25.7323C27.2362 26.2011 27.4996 26.837 27.4996 27.5V32.5759C27.4999 32.7416 27.5544 32.9027 27.6548 33.0346C27.7553 33.1664 27.8961 33.2617 28.0558 33.306C28.2155 33.3503 28.3854 33.3412 28.5394 33.2799C28.6934 33.2186 28.8231 33.1086 28.9087 32.9667C30.8079 29.7117 33.3329 24.8275 33.3329 20C33.3505 19.5576 33.2763 19.1163 33.115 18.7039C32.9537 18.2915 32.7088 17.917 32.3957 17.6039C32.0826 17.2908 31.7081 17.0459 31.2957 16.8846C30.8833 16.7233 30.442 16.6491 29.9996 16.6667C29.049 16.6662 28.1044 16.817 27.2012 17.1134C26.4909 17.352 25.7487 17.4824 24.9996 17.5C24.2504 17.4825 23.5082 17.3521 22.7979 17.1134C21.8947 16.8171 20.9501 16.6663 19.9996 16.6667C16.7037 16.6667 16.6662 19.8642 16.6662 20C16.6662 24.8284 19.1912 29.7125 21.0912 32.9667C21.1766 33.1088 21.3063 33.2191 21.4603 33.2805C21.6143 33.3419 21.7842 33.3512 21.944 33.3068C22.1038 33.2625 22.2446 33.167 22.345 33.035C22.4453 32.903 22.4996 32.7417 22.4996 32.5759V27.5C22.4996 26.837 22.7629 26.2011 23.2318 25.7323C23.7006 25.2634 24.3365 25 24.9996 25Z" fill="#170F49"/>
</g>
<defs>
<clipPath id="clip0_504_173">
<rect width="20" height="20" fill="white" transform="translate(15 15)"/>
</clipPath>
</defs>
</svg>
