<svg width="50" height="50" viewBox="0 0 50 50" fill="none" xmlns="http://www.w3.org/2000/svg">
<path d="M50 25C50 38.8071 38.8071 50 25 50C11.1929 50 0 38.8071 0 25C0 11.1929 11.1929 0 25 0C38.8071 0 50 11.1929 50 25Z" fill="#C3EBCF"/>
<path d="M43.2689 24.9999C43.2689 35.0898 35.0895 43.2692 24.9997 43.2692C14.9099 43.2692 6.73047 35.0898 6.73047 24.9999C6.73047 14.9101 14.9099 6.73071 24.9997 6.73071C35.0895 6.73071 43.2689 14.9101 43.2689 24.9999Z" fill="#79DD97"/>
<g clip-path="url(#clip0_504_177)">
<path d="M35 22.5C35.0019 22.0412 34.8775 21.5908 34.6405 21.198C34.4035 20.8052 34.0629 20.4852 33.6562 20.273C33.2494 20.0609 32.7921 19.9647 32.3343 19.9951C31.8766 20.0256 31.436 20.1813 31.0609 20.4454C30.6858 20.7095 30.3905 21.0717 30.2075 21.4924C30.0245 21.9131 29.9608 22.3761 30.0234 22.8305C30.0859 23.285 30.2723 23.7135 30.5622 24.0691C30.852 24.4247 31.2341 24.6937 31.6667 24.8467V28.3333C31.6667 29.6594 31.1399 30.9312 30.2022 31.8689C29.2645 32.8065 27.9928 33.3333 26.6667 33.3333C25.3406 33.3333 24.0688 32.8065 23.1311 31.8689C22.1935 30.9312 21.6667 29.6594 21.6667 28.3333V28.2667C23.0534 28.0655 24.3215 27.3722 25.2395 26.3135C26.1574 25.2548 26.664 23.9013 26.6667 22.5V19.1667C26.6653 18.062 26.2259 17.003 25.4448 16.2218C24.6637 15.4407 23.6047 15.0013 22.5 15C22.279 15 22.067 15.0878 21.9107 15.2441C21.7545 15.4004 21.6667 15.6123 21.6667 15.8333C21.6667 16.0543 21.7545 16.2663 21.9107 16.4226C22.067 16.5789 22.279 16.6667 22.5 16.6667C23.163 16.6667 23.7989 16.9301 24.2678 17.3989C24.7366 17.8677 25 18.5036 25 19.1667V22.5C25 23.6051 24.561 24.6649 23.7796 25.4463C22.9982 26.2277 21.9384 26.6667 20.8333 26.6667C19.7283 26.6667 18.6685 26.2277 17.8871 25.4463C17.1057 24.6649 16.6667 23.6051 16.6667 22.5V19.1667C16.6667 18.5036 16.9301 17.8677 17.3989 17.3989C17.8677 16.9301 18.5036 16.6667 19.1667 16.6667C19.3877 16.6667 19.5996 16.5789 19.7559 16.4226C19.9122 16.2663 20 16.0543 20 15.8333C20 15.6123 19.9122 15.4004 19.7559 15.2441C19.5996 15.0878 19.3877 15 19.1667 15C18.062 15.0013 17.003 15.4407 16.2219 16.2218C15.4407 17.003 15.0013 18.062 15 19.1667L15 22.5C15.0027 23.9013 15.5092 25.2548 16.4272 26.3135C17.3452 27.3722 18.6133 28.0655 20 28.2667V28.3333C20 30.1014 20.7024 31.7971 21.9526 33.0474C23.2029 34.2976 24.8986 35 26.6667 35C28.4348 35 30.1305 34.2976 31.3807 33.0474C32.631 31.7971 33.3333 30.1014 33.3333 28.3333V24.8467C33.8191 24.6749 34.2399 24.3573 34.5383 23.9372C34.8366 23.5172 34.9979 23.0152 35 22.5ZM32.5 23.3333C32.3352 23.3333 32.1741 23.2845 32.037 23.1929C31.9 23.1013 31.7932 22.9712 31.7301 22.8189C31.667 22.6666 31.6505 22.4991 31.6827 22.3374C31.7148 22.1758 31.7942 22.0273 31.9107 21.9107C32.0273 21.7942 32.1758 21.7148 32.3374 21.6827C32.4991 21.6505 32.6666 21.667 32.8189 21.7301C32.9712 21.7932 33.1013 21.9 33.1929 22.037C33.2845 22.1741 33.3333 22.3352 33.3333 22.5C33.3333 22.721 33.2455 22.933 33.0893 23.0893C32.933 23.2455 32.721 23.3333 32.5 23.3333Z" fill="#170F49"/>
</g>
<defs>
<clipPath id="clip0_504_177">
<rect width="20" height="20" fill="white" transform="translate(15 15)"/>
</clipPath>
</defs>
</svg>
