<svg width="50" height="50" viewBox="0 0 50 50" fill="none" xmlns="http://www.w3.org/2000/svg">
<path d="M50 25C50 38.8071 38.8071 50 25 50C11.1929 50 0 38.8071 0 25C0 11.1929 11.1929 0 25 0C38.8071 0 50 11.1929 50 25Z" fill="#C3EBCF"/>
<path d="M43.2689 24.9999C43.2689 35.0898 35.0895 43.2692 24.9997 43.2692C14.9099 43.2692 6.73047 35.0898 6.73047 24.9999C6.73047 14.9101 14.9099 6.73071 24.9997 6.73071C35.0895 6.73071 43.2689 14.9101 43.2689 24.9999Z" fill="#79DD97"/>
<g clip-path="url(#clip0_504_172)">
<path d="M35 24.1667C35 22.8583 34.375 21.6333 33.3333 20.85C33.3333 19.2667 32.225 17.925 30.75 17.5833C30.4083 16.1083 29.0833 15 27.5 15C26.5083 15 25.6083 15.4417 25 16.1333C24.3917 15.4417 23.4917 15 22.5 15C20.9167 15 19.5917 16.1083 19.25 17.5833C17.775 17.925 16.6667 19.2667 16.6667 20.85C15.625 21.6333 15 22.8583 15 24.1667C15 24.9083 15.2 25.6167 15.575 26.25C15.2 26.8833 15 27.5917 15 28.3333C15 29.7417 15.7167 31.0333 16.8917 31.8083C17.4917 33.7083 19.2333 35 21.25 35C22.8 35 24.1667 34.225 25 33.05C25.8333 34.225 27.2 35 28.75 35C30.7667 35 32.5083 33.7 33.1083 31.8083C34.2833 31.0417 35 29.7417 35 28.3333C35 27.5917 34.8 26.8833 34.425 26.25C34.8 25.6167 35 24.9083 35 24.1667ZM24.1667 30.4167C24.1667 32.025 22.8583 33.3333 21.25 33.3333C19.8917 33.3333 18.725 32.4 18.4167 31.075C18.3667 30.8417 18.2083 30.6417 18 30.525C17.1833 30.0833 16.6667 29.2417 16.6667 28.3333C16.6667 27.775 16.8583 27.2333 17.2333 26.775C17.4833 26.4667 17.4833 26.0333 17.2333 25.725C16.8667 25.2667 16.6667 24.725 16.6667 24.1667C16.6667 23.275 17.1583 22.4417 17.95 22C18.2583 21.825 18.425 21.475 18.3583 21.125C18.3417 21.0333 18.325 20.9333 18.325 20.8333C18.325 19.9167 19.075 19.1667 19.9917 19.1667C20.45 19.1667 20.825 18.7917 20.825 18.3333C20.825 17.4167 21.575 16.6667 22.4917 16.6667C23.4083 16.6667 24.1583 17.4167 24.1583 18.3333V30.4167H24.1667ZM32.7667 26.775C33.1333 27.2333 33.3333 27.775 33.3333 28.3333C33.3333 29.25 32.825 30.0833 32 30.525C31.7917 30.6417 31.6333 30.8417 31.5833 31.075C31.275 32.4083 30.1083 33.3333 28.75 33.3333C27.1417 33.3333 25.8333 32.025 25.8333 30.4167V18.3333C25.8333 17.4167 26.5833 16.6667 27.5 16.6667C28.4167 16.6667 29.1667 17.4167 29.1667 18.3333C29.1667 18.7917 29.5417 19.1667 30 19.1667C30.9167 19.1667 31.6667 19.9167 31.6667 20.8333C31.6667 20.9333 31.65 21.0333 31.6333 21.125C31.5667 21.475 31.7333 21.825 32.0417 22C32.8333 22.45 33.325 23.275 33.325 24.1667C33.325 24.7333 33.1333 25.2667 32.7583 25.725C32.5083 26.0333 32.5083 26.4667 32.7583 26.775H32.7667Z" fill="#170F49"/>
</g>
<defs>
<clipPath id="clip0_504_172">
<rect width="20" height="20" fill="white" transform="translate(15 15)"/>
</clipPath>
</defs>
</svg>
