<svg width="50" height="50" viewBox="0 0 50 50" fill="none" xmlns="http://www.w3.org/2000/svg">
<path d="M50 25C50 38.8071 38.8071 50 25 50C11.1929 50 0 38.8071 0 25C0 11.1929 11.1929 0 25 0C38.8071 0 50 11.1929 50 25Z" fill="#C3EBCF"/>
<path d="M43.2689 24.9999C43.2689 35.0898 35.0895 43.2692 24.9997 43.2692C14.9099 43.2692 6.73047 35.0898 6.73047 24.9999C6.73047 14.9101 14.9099 6.73071 24.9997 6.73071C35.0895 6.73071 43.2689 14.9101 43.2689 24.9999Z" fill="#79DD97"/>
<g clip-path="url(#clip0_504_175)">
<path d="M30 16.6667C27.9933 16.6667 25.8333 18.4917 25.8333 22.5C25.8333 23.9467 26.5133 25.3075 27.1708 26.6225C27.7683 27.8175 28.3333 28.9467 28.3333 30V32.0833C28.3333 33.6917 29.6417 35 31.25 35C32.8583 35 34.1667 33.6917 34.1667 32.0833V30C34.1667 28.8525 34.3575 28.0908 34.5583 27.2858C34.7758 26.4175 35 25.5192 35 24.1667C35 18.0142 31.3908 16.6667 30 16.6667ZM32.5 32.0833C32.5 32.7725 31.9392 33.3333 31.25 33.3333C30.5608 33.3333 30 32.7725 30 32.0833V30.8333H32.5V32.0833ZM32.9417 26.8808C32.7725 27.5575 32.5983 28.2525 32.53 29.1667H29.9275C29.7358 28.0267 29.1917 26.9375 28.6617 25.8775C28.0642 24.6825 27.4992 23.5533 27.4992 22.5C27.4992 19.7642 28.7567 18.3333 29.9992 18.3333C30.0325 18.3333 33.3325 18.4917 33.3325 24.1667C33.3325 25.3142 33.1417 26.0758 32.9408 26.8808H32.9417ZM20 15C18.6092 15 15 16.3475 15 22.5C15 23.8525 15.225 24.7508 15.4417 25.6192C15.6425 26.425 15.8333 27.1858 15.8333 28.3333V30.4167C15.8333 32.025 17.1417 33.3333 18.75 33.3333C20.3583 33.3333 21.6667 32.025 21.6667 30.4167V28.3333C21.6667 27.28 22.2317 26.1508 22.8292 24.9558C23.4867 23.64 24.1667 22.28 24.1667 20.8333C24.1667 16.825 22.0067 15 20 15ZM20 30.4167C20 31.1058 19.4392 31.6667 18.75 31.6667C18.0608 31.6667 17.5 31.1058 17.5 30.4167V29.1667H20V30.4167ZM21.3375 24.2108C20.8075 25.2708 20.2633 26.36 20.0717 27.5H17.47C17.4017 26.5858 17.2275 25.8908 17.0583 25.2142C16.8575 24.4083 16.6667 23.6475 16.6667 22.5C16.6667 16.825 19.9667 16.6667 20 16.6667C21.2425 16.6667 22.5 18.0975 22.5 20.8333C22.5 21.8867 21.935 23.0158 21.3375 24.2108Z" fill="#170F49"/>
</g>
<defs>
<clipPath id="clip0_504_175">
<rect width="20" height="20" fill="white" transform="translate(15 15)"/>
</clipPath>
</defs>
</svg>
