<svg width="50" height="50" viewBox="0 0 50 50" fill="none" xmlns="http://www.w3.org/2000/svg">
<path d="M50 25C50 38.8071 38.8071 50 25 50C11.1929 50 0 38.8071 0 25C0 11.1929 11.1929 0 25 0C38.8071 0 50 11.1929 50 25Z" fill="#C3EBCF"/>
<path d="M43.2689 24.9999C43.2689 35.0898 35.0895 43.2692 24.9997 43.2692C14.9099 43.2692 6.73047 35.0898 6.73047 24.9999C6.73047 14.9101 14.9099 6.73071 24.9997 6.73071C35.0895 6.73071 43.2689 14.9101 43.2689 24.9999Z" fill="#79DD97"/>
<g clip-path="url(#clip0_504_176)">
<path d="M35 24.5833C34.9995 24.0087 34.8293 23.4469 34.5107 22.9686C34.1921 22.4903 33.7393 22.1168 33.2091 21.895C32.8708 19.9636 31.8622 18.2134 30.3609 16.9522C28.8596 15.691 26.9616 14.9996 25.0008 14.9996C23.04 14.9996 21.142 15.691 19.6407 16.9522C18.1393 18.2134 17.1308 19.9636 16.7925 21.895C16.1875 22.1495 15.686 22.6007 15.3692 23.1755C15.0523 23.7503 14.9386 24.4152 15.0465 25.0627C15.1543 25.7101 15.4774 26.3022 15.9634 26.7433C16.4495 27.1844 17.0701 27.4487 17.725 27.4933C18.1554 28.4067 18.7391 29.2396 19.4508 29.9558C18.4079 31.0945 17.7461 32.53 17.5575 34.0625C17.5438 34.1711 17.5517 34.2814 17.5806 34.387C17.6096 34.4925 17.6591 34.5914 17.7263 34.6778C17.7934 34.7642 17.877 34.8366 17.9721 34.8907C18.0673 34.9449 18.1722 34.9798 18.2808 34.9933C18.3151 34.9975 18.3496 34.9998 18.3841 35C18.5869 34.9998 18.7827 34.9256 18.9347 34.7914C19.0867 34.6571 19.1846 34.4721 19.21 34.2708C19.361 33.0626 19.8905 31.9332 20.7225 31.0442C21.9634 31.9602 23.4579 32.4688 25 32.5C26.5375 32.4685 28.0276 31.962 29.2658 31.05C30.0942 31.9375 30.6214 33.0637 30.7725 34.2683C30.7976 34.4697 30.8954 34.655 31.0474 34.7894C31.1995 34.9238 31.3954 34.9981 31.5983 34.9983C31.6331 34.9982 31.6679 34.9959 31.7025 34.9917C31.9217 34.9642 32.121 34.8508 32.2567 34.6764C32.3923 34.502 32.4531 34.2809 32.4258 34.0617C32.2385 32.5331 31.5799 31.1007 30.5416 29.9633C31.2573 29.2449 31.8441 28.4089 32.2766 27.4917C33.0147 27.4426 33.7067 27.115 34.2123 26.575C34.7179 26.035 34.9995 25.3231 35 24.5833ZM31.8733 25.8108C31.6789 25.7752 31.4782 25.8104 31.3075 25.9099C31.1368 26.0094 31.0073 26.1667 30.9425 26.3533C30.1791 28.5183 27.6083 30.8333 25 30.8333C22.3916 30.8333 19.8208 28.5167 19.0575 26.3517C18.9925 26.1651 18.863 26.0079 18.6923 25.9084C18.5216 25.8089 18.321 25.7737 18.1266 25.8092C18.0574 25.8228 17.9872 25.8308 17.9166 25.8333C17.6073 25.8297 17.3103 25.7114 17.0831 25.5014C16.8559 25.2914 16.7147 25.0046 16.6867 24.6965C16.6587 24.3884 16.746 24.0809 16.9316 23.8334C17.1172 23.5859 17.388 23.4161 17.6916 23.3567C17.8688 23.3246 18.0308 23.2359 18.1534 23.104C18.276 22.9721 18.3525 22.8041 18.3716 22.625C18.4829 21.5594 18.8506 20.5367 19.4433 19.6442C20.036 18.7517 20.836 18.016 21.775 17.5C21.6385 18.0301 21.6322 18.5853 21.7566 19.1183C21.926 19.8233 22.3207 20.4537 22.8807 20.9142C23.4407 21.3746 24.1355 21.6399 24.8599 21.6699C25.5843 21.6998 26.2987 21.4928 26.8948 21.0802C27.4909 20.6676 27.9362 20.0719 28.1633 19.3833C28.2003 19.261 28.208 19.1317 28.1858 19.0059C28.1636 18.88 28.112 18.7612 28.0354 18.659C27.9587 18.5567 27.859 18.474 27.7445 18.4174C27.6299 18.3609 27.5036 18.3321 27.3758 18.3333H27.25C27.0967 18.3384 26.949 18.392 26.8282 18.4866C26.7075 18.5811 26.62 18.7116 26.5783 18.8592C26.4814 19.1505 26.306 19.4094 26.0713 19.6074C25.8366 19.8053 25.5518 19.9346 25.2482 19.9809C24.9447 20.0273 24.6343 19.9888 24.3513 19.8699C24.0682 19.751 23.8235 19.5563 23.6441 19.3071C23.4647 19.0579 23.3577 18.764 23.3347 18.4579C23.3118 18.1517 23.3739 17.8451 23.5141 17.572C23.6544 17.2989 23.8673 17.0698 24.1295 16.9101C24.3917 16.7503 24.6929 16.6661 25 16.6667C26.6465 16.6627 28.2359 17.2699 29.4604 18.3707C30.6849 19.4714 31.4574 20.9874 31.6283 22.625C31.6474 22.8041 31.7239 22.9721 31.8465 23.104C31.9691 23.2359 32.1311 23.3246 32.3083 23.3567C32.6119 23.4161 32.8827 23.5859 33.0683 23.8334C33.254 24.0809 33.3412 24.3884 33.3132 24.6965C33.2852 25.0046 33.144 25.2914 32.9168 25.5014C32.6896 25.7114 32.3926 25.8297 32.0833 25.8333C32.0128 25.8314 31.9426 25.8239 31.8733 25.8108Z" fill="#170F49"/>
<path d="M22.917 25.8333C23.6073 25.8333 24.167 25.2737 24.167 24.5833C24.167 23.893 23.6073 23.3333 22.917 23.3333C22.2266 23.3333 21.667 23.893 21.667 24.5833C21.667 25.2737 22.2266 25.8333 22.917 25.8333Z" fill="#170F49"/>
<path d="M27.083 25.8333C27.7734 25.8333 28.333 25.2737 28.333 24.5833C28.333 23.893 27.7734 23.3333 27.083 23.3333C26.3927 23.3333 25.833 23.893 25.833 24.5833C25.833 25.2737 26.3927 25.8333 27.083 25.8333Z" fill="#170F49"/>
</g>
<defs>
<clipPath id="clip0_504_176">
<rect width="20" height="20" fill="white" transform="translate(15 15)"/>
</clipPath>
</defs>
</svg>
