<svg width="50" height="50" viewBox="0 0 50 50" fill="none" xmlns="http://www.w3.org/2000/svg">
<path d="M50 25C50 38.8071 38.8071 50 25 50C11.1929 50 0 38.8071 0 25C0 11.1929 11.1929 0 25 0C38.8071 0 50 11.1929 50 25Z" fill="#C3EBCF"/>
<path d="M43.2689 24.9999C43.2689 35.0898 35.0895 43.2692 24.9997 43.2692C14.9099 43.2692 6.73047 35.0898 6.73047 24.9999C6.73047 14.9101 14.9099 6.73071 24.9997 6.73071C35.0895 6.73071 43.2689 14.9101 43.2689 24.9999Z" fill="#79DD97"/>
<g clip-path="url(#clip0_504_180)">
<path d="M34.7563 19.4108L30.5896 15.2442C30.4325 15.0924 30.222 15.0084 30.0035 15.0103C29.785 15.0122 29.576 15.0998 29.4215 15.2543C29.267 15.4088 29.1793 15.6178 29.1774 15.8363C29.1755 16.0548 29.2595 16.2653 29.4113 16.4225L30.9055 17.9167L29.6671 19.1525C28.8668 18.5649 27.8829 18.2823 26.8927 18.3558C25.9025 18.4293 24.9711 18.854 24.2663 19.5533L19.2088 24.6133C18.6655 25.1537 18.2348 25.7964 17.9416 26.5043C17.6484 27.2122 17.4984 27.9713 17.5005 28.7375V31.3208L15.2446 33.5775C15.165 33.6544 15.1016 33.7463 15.0579 33.848C15.0142 33.9497 14.9912 34.059 14.9903 34.1697C14.9893 34.2803 15.0104 34.3901 15.0523 34.4925C15.0942 34.5949 15.1561 34.6879 15.2343 34.7662C15.3126 34.8444 15.4056 34.9063 15.508 34.9482C15.6104 34.9901 15.7202 35.0112 15.8308 35.0102C15.9415 35.0093 16.0508 34.9863 16.1525 34.9426C16.2541 34.8989 16.3461 34.8354 16.423 34.7558L18.6788 32.5H21.2621C22.0284 32.5021 22.7874 32.3521 23.4953 32.0589C24.2032 31.7657 24.846 31.3349 25.3863 30.7917L30.4463 25.7317C31.1462 25.0277 31.5714 24.0967 31.645 23.1068C31.7187 22.1168 31.436 21.1331 30.848 20.3333L32.0838 19.095L33.578 20.5892C33.7351 20.741 33.9456 20.825 34.1641 20.8231C34.3826 20.8212 34.5917 20.7335 34.7462 20.579C34.9007 20.4245 34.9883 20.2155 34.9902 19.997C34.9921 19.7785 34.9081 19.568 34.7563 19.4108ZM29.2688 24.5533L24.2088 29.6133C23.8228 30.0014 23.3637 30.309 22.8581 30.5184C22.3524 30.7278 21.8103 30.8348 21.263 30.8333H19.1671V28.7375C19.1674 28.4645 19.1939 28.1921 19.2463 27.9242L20.2463 28.9242C20.3232 29.0038 20.4151 29.0673 20.5168 29.1109C20.6185 29.1546 20.7278 29.1776 20.8385 29.1786C20.9491 29.1795 21.0589 29.1584 21.1613 29.1165C21.2637 29.0746 21.3567 29.0128 21.435 28.9345C21.5132 28.8563 21.5751 28.7632 21.617 28.6608C21.6589 28.5584 21.68 28.4487 21.679 28.338C21.6781 28.2274 21.6551 28.118 21.6114 28.0163C21.5677 27.9147 21.5042 27.8227 21.4246 27.7458L19.9738 26.295C20.0994 26.1177 20.2387 25.9505 20.3905 25.795L21.2505 24.9283L22.7446 26.4225C22.9018 26.5743 23.1123 26.6583 23.3308 26.6564C23.5493 26.6545 23.7583 26.5669 23.9128 26.4124C24.0673 26.2579 24.155 26.0488 24.1569 25.8303C24.1588 25.6119 24.0748 25.4013 23.923 25.2442L22.4288 23.75L23.7505 22.4283L25.2446 23.9225C25.4018 24.0743 25.6123 24.1583 25.8308 24.1564C26.0493 24.1545 26.2583 24.0669 26.4128 23.9124C26.5673 23.7579 26.655 23.5488 26.6569 23.3303C26.6588 23.1119 26.5748 22.9013 26.423 22.7442L24.9288 21.25L25.4471 20.7317C25.9234 20.2774 26.5564 20.0239 27.2146 20.0239C27.8729 20.0239 28.5058 20.2774 28.9821 20.7317L29.2688 21.0183C29.7375 21.4872 30.0008 22.1229 30.0008 22.7858C30.0008 23.4488 29.7375 24.0845 29.2688 24.5533Z" fill="#170F49"/>
</g>
<defs>
<clipPath id="clip0_504_180">
<rect width="20" height="20" fill="white" transform="translate(15 15)"/>
</clipPath>
</defs>
</svg>
