<svg width="53" height="56" viewBox="0 0 53 56" fill="none" xmlns="http://www.w3.org/2000/svg">
<path d="M49.2693 26.109C47.0806 26.5712 46.4132 24.6733 44.5974 23.4637C42.7718 22.2541 41.1033 21.8018 39.4151 20.1103C38.7378 19.4318 38.5612 18.2714 37.8937 17.5634C36.9908 16.6095 36.4509 16.3439 35.2339 15.8621C33.0942 15.0262 31.2588 14.4165 29.4823 12.9414C29.178 12.6956 28.4713 12.3711 27.8137 12.2432C27.5291 12.1842 27.4015 12.2334 27.3131 12.3317C27.0481 12.6759 26.8028 13.0889 26.5672 13.4724C26.4985 13.5806 26.2826 13.8855 26.1059 14.0625C25.7624 14.3772 25.3305 14.7705 25.0066 14.9574C23.2203 16.0588 20.8647 16.9832 19.8439 18.8221C19.6574 19.1564 17.7042 20.071 17.2527 20.425C16.5461 21.0052 15.8492 21.5854 15.1229 22.1263C14.4358 22.6376 13.4936 23.4244 12.7869 23.9456C12.4139 23.8079 12.0311 23.68 11.668 23.621C10.8337 23.4539 10.127 22.8048 9.40072 22.3721C8.47811 21.7821 8.54681 21.7231 8.25236 21.5559C7.99717 21.4182 7.86958 21.3297 7.77142 21.2806C7.08437 20.8774 7.04511 21.2806 6.06361 21.8804C5.24896 22.3721 4.31654 23.208 3.61967 23.8767C3.06021 24.3979 2.50076 24.9584 1.91185 25.5288C2.73632 12.8627 13.3856 2.89117 26.4003 2.89117C39.4151 2.89117 49.8386 12.6857 50.8594 25.1256C50.4668 25.6468 49.8975 25.932 49.2792 26.0697M26.4003 0C12.041 0 0.410156 11.663 0.410156 26.0402C0.410156 32.029 2.43205 37.5262 5.82805 41.9318L6.54455 41.3417C4.66006 38.7751 3.26633 35.8446 2.50076 32.6486C2.71669 32.6977 2.98169 32.7666 3.42337 32.9042C4.86618 33.3664 7.58494 34.2613 9.54795 33.3664C10.7945 32.7764 12.9636 32.2945 13.7979 31.9799C14.5831 31.6553 16.2516 32.383 14.2886 31.085H14.2788C14.2788 31.085 14.2199 31.0555 14.1806 31.0358C14.1119 31.0063 14.053 30.9866 13.9745 30.9768C13.7782 30.9276 12.2078 31.2423 11.8545 31.1931C11.7465 31.1636 11.6385 31.1341 11.5404 31.0751C10.6865 30.6129 14.3377 27.7611 14.4555 27.0432C13.4052 27.1514 12.5415 27.8201 11.6091 28.2331C10.5098 28.715 9.30257 28.7248 8.12477 28.7445C6.77029 28.7445 5.7299 29.7967 4.54228 30.2786C3.92394 30.5441 2.90317 30.7703 2.21612 31.2226C2.16705 30.9276 2.11797 30.6326 2.07871 30.3474C2.09834 29.8361 2.15723 29.2165 2.28483 28.5085C2.54983 26.9646 3.17799 25.755 4.57173 23.9062C4.57173 23.9062 5.9262 22.2738 6.72122 21.7428C7.02548 21.5264 7.35919 21.2314 7.6929 21.4379C8.03643 21.6543 7.59476 23.0015 8.52718 23.2277C9.08664 23.3555 8.59589 24.2799 8.78237 24.8208C8.98849 25.3911 6.47584 27.6038 7.14326 27.8594C7.51623 28.0168 9.17497 27.1612 10.0583 26.8859C10.8337 26.64 11.668 26.6204 12.5219 25.8238C13.3954 25.0076 14.269 24.5454 14.269 24.5454C14.9855 23.9456 15.6725 23.326 16.3792 22.7262C17.0663 22.1263 17.7239 21.5067 18.3913 20.8872C18.8035 20.484 20.6978 19.4416 20.8549 19.0778C21.7284 17.1798 24.0251 16.0686 25.7231 14.859C26.0372 14.6427 26.3709 14.1805 26.5672 13.915C26.7635 13.6495 26.9598 13.2561 27.0776 13.1283C27.2935 12.8824 27.3426 12.6956 27.588 12.5776C27.6861 12.5284 28.0689 12.5284 28.2358 12.7152C28.7952 13.3053 29.551 13.8166 29.5706 14.4263C29.6197 15.3802 32.2894 16.2161 32.8979 16.9635C33.1531 17.2683 33.2905 17.5634 33.3985 17.8584C32.9273 17.6715 32.4758 17.4453 32.0636 17.1503C31.7986 16.9536 31.1606 16.993 30.8465 16.9536C29.9239 16.7766 30.1399 17.2093 30.6502 17.7404C31.1704 18.3009 31.779 18.7631 32.2599 19.363C32.8096 20.0415 32.7605 20.602 32.9077 21.4182C33.0746 22.2836 33.5849 23.0408 34.007 23.8079C34.4388 24.5749 34.4094 25.401 34.645 26.2369C34.9002 27.0727 35.6068 27.7709 36.1957 28.3806C36.6963 28.9018 37.8348 30.1901 38.4532 29.9049C39.1108 29.6296 39.9353 30.4261 40.1806 30.1999C40.426 29.9836 39.5132 28.9117 39.8666 28.597C40.2199 28.2725 41.7314 28.7838 42.0455 29.7574C42.3988 30.8981 42.3596 30.9965 42.3105 31.8127C42.2712 32.3535 42.0651 32.7862 41.702 33.1698C41.2505 33.6221 40.2101 34.3793 40.4162 35.1365C41.3781 34.6252 42.4185 34.576 43.4883 34.6153C44.5287 34.6448 45.2943 34.2122 45.9813 33.4746C46.2856 33.1501 47.1689 32.1175 47.6695 32.6387C47.9738 32.9436 47.0806 34.2121 48.0621 33.9565C48.7099 33.7795 49.289 33.2779 49.8877 32.9534C50.0447 32.8649 50.192 32.7666 50.3196 32.6781C49.554 35.9232 48.121 38.9128 46.1874 41.5089L46.9039 42.0989C50.349 37.6835 52.4102 32.1274 52.4102 26.0893C52.3807 11.663 40.7499 0 26.4003 0ZM17.0957 41.3712C17.0564 41.6466 16.6737 44.0461 16.2516 46.6815C15.4762 46.5045 14.7106 46.2193 13.8469 45.7375C12.9832 45.2556 12.3354 44.7639 11.7858 44.1936C13.7979 42.4333 15.6234 40.8402 15.8492 40.6534C16.389 40.1912 16.654 40.083 16.9092 40.2207C17.1546 40.3583 17.2135 40.6534 17.1055 41.3614M18.6072 37.4868C18.6072 37.4868 18.5483 37.4377 18.4698 37.4082C18.4011 37.3787 18.352 37.3492 18.3422 37.3295C18.3422 37.3492 18.3422 37.3492 18.3422 37.3492C17.1251 36.6706 15.9081 36.7001 14.5242 37.7229C12.6102 39.1094 3.37429 46.9471 3.37429 46.9471L6.04398 49.2187C6.04398 49.2187 7.52605 47.9206 9.34183 46.3472C10.235 47.1339 11.2361 47.8518 12.355 48.4811C13.474 49.1007 14.6125 49.5727 15.7412 49.8972C15.3584 52.2869 15.0444 54.234 15.0444 54.234L18.3717 55.296C18.3717 55.296 20.1384 43.2987 20.3052 40.9287C20.4328 39.2176 19.8243 38.1654 18.6072 37.4868ZM24.5747 55.7386H28.01V38.6472H24.5747V55.7386ZM38.6004 45.7473C37.7367 46.2292 36.9613 46.5045 36.1957 46.6717C35.7737 44.0264 35.4105 41.6367 35.3516 41.3614C35.2437 40.6534 35.3026 40.3682 35.5479 40.2207C35.7933 40.083 36.0681 40.1912 36.5982 40.6534C36.8337 40.85 38.6495 42.4431 40.6518 44.2034C40.1021 44.7639 39.4543 45.2655 38.5906 45.7473M34.1248 37.3295C34.1248 37.3295 34.0659 37.3787 33.9874 37.4082C33.9186 37.4377 33.8696 37.477 33.8696 37.477C32.6525 38.1555 32.0342 39.2078 32.1519 40.9189C32.3286 43.2987 34.0659 55.296 34.0659 55.296L37.3932 54.234C37.3932 54.234 37.0889 52.2869 36.7061 49.9071C37.8348 49.5629 38.9832 49.0908 40.1021 48.4713C41.221 47.8518 42.2222 47.1241 43.1055 46.3374C44.9213 47.9304 46.4034 49.2384 46.4034 49.2384L49.0632 46.9667C49.0632 46.9667 39.8371 39.1094 37.9232 37.713C36.5393 36.6903 35.3222 36.6608 34.1051 37.3295M34.8118 32.4322C34.2131 31.262 32.0931 32.1667 31.0232 31.1833C30.7288 30.9276 30.1006 30.3474 29.7767 29.3739C29.4724 28.4495 29.0111 27.7119 28.2358 27.1022C26.8616 26.0205 23.5932 24.3782 23.819 22.1755C23.9171 21.1921 25.1048 20.9855 25.5955 20.2578C25.89 19.8448 25.9292 19.2745 26.2826 18.8811C26.6752 18.4287 26.1255 18.4287 25.7427 18.3992C24.9183 18.3697 24.3097 19.2646 23.6325 19.6383C22.5136 20.2283 21.5125 21.0642 20.2561 21.3396C19.8832 21.4182 18.0085 21.9984 19.2354 22.3131C20.0795 22.5295 21.0119 22.4705 21.7088 23.0703C22.6019 23.8374 23.3282 24.8306 24.2312 25.6075C24.6827 25.991 25.1342 26.3647 25.4974 26.8466C25.9194 27.4071 25.8703 28.0365 26.1844 28.6068C26.4887 29.1575 27.0874 28.6658 27.4702 28.9805C28.6971 29.9934 26.9892 30.4949 26.5476 30.9768C25.9685 31.616 25.8605 32.0094 24.8005 32.442C24.3294 32.6289 21.3063 33.0026 20.9334 33.2779C20.5604 33.5533 20.7567 33.6516 20.8549 33.75C20.953 33.8581 21.4732 34.0253 21.6989 34.045C22.9749 34.1728 26.8813 34.9104 27.6861 33.9073C28.2358 33.2091 29.0504 33.1304 29.9436 33.3861C30.5717 33.5533 31.8379 33.4353 32.9273 32.9829C33.5555 32.7272 35.3026 32.7076 34.8118 32.442" fill="white"/>
</svg>
