<svg width="142" height="38" viewBox="0 0 142 38" fill="none" xmlns="http://www.w3.org/2000/svg">
<g clip-path="url(#clip0_565_227)">
<path d="M0.209961 0.369263V21.4505H12.877V18.1981H3.6375V9.89571H10.4747V6.66701H3.6375V3.62162H12.877V0.369263H0.209961Z" fill="white"/>
<mask id="mask0_565_227" style="mask-type:luminance" maskUnits="userSpaceOnUse" x="0" y="0" width="142" height="38">
<path d="M141.21 0.369263H0.209961V37.3693H141.21V0.369263Z" fill="white"/>
</mask>
<g mask="url(#mask0_565_227)">
<path d="M51.8315 21.9709C47.486 21.9709 43.9512 18.4643 43.9512 14.1534C43.9512 9.84257 47.486 6.33594 51.8315 6.33594C56.1771 6.33594 59.7119 9.84257 59.7119 14.1534C59.7119 18.4643 56.1771 21.9709 51.8315 21.9709ZM51.8315 9.51142C49.2504 9.51142 47.1522 11.5929 47.1522 14.1534C47.1522 16.7139 49.2504 18.7954 51.8315 18.7954C54.4126 18.7954 56.5109 16.7139 56.5109 14.1534C56.5109 11.5929 54.4126 9.51142 51.8315 9.51142Z" fill="white"/>
<path d="M27.8502 12.4503V21.5273H24.6313V12.7755C24.6313 10.5284 23.3199 9.34575 21.2932 9.34575C19.2664 9.34575 17.508 10.5876 17.508 13.6034V21.5273H14.2891V6.74386L17.508 5.89233V8.63614C18.4915 7.09866 20.101 6.35949 22.1277 6.35949C25.4658 6.35949 27.8502 8.60657 27.8502 12.4503Z" fill="white"/>
<path d="M82.8049 12.3616V21.5273H79.586V12.5685C79.586 10.4989 78.4534 9.34575 76.6949 9.34575C74.7874 9.34575 73.4462 10.558 73.4462 13.2486V21.5273H70.2273V12.5685C70.2273 10.4989 69.1841 9.34575 67.4257 9.34575C65.6672 9.34575 64.1173 10.558 64.1173 13.2486V21.5273H60.8984V6.74386L64.1173 5.89233V8.51787C65.0711 7.0691 66.5315 6.35949 68.3794 6.35949C70.2273 6.35949 71.7473 7.21693 72.6117 8.69527C73.5952 7.1578 75.1749 6.35949 77.1718 6.35949C80.5397 6.35949 82.8049 8.66571 82.8049 12.3616Z" fill="white"/>
<path d="M100.067 14.1356C100.067 18.541 96.6991 21.9117 92.6457 21.9117C90.3209 21.9117 88.5624 20.9655 87.4298 19.4281V27.4407H84.2109V6.74386L87.4298 5.89233V8.87859C88.5624 7.31154 90.3209 6.3654 92.6457 6.3654C96.6991 6.3654 100.067 9.7656 100.067 14.1415M96.8481 14.1415C96.8481 11.3918 94.8214 9.41079 92.139 9.41079C89.4566 9.41079 87.4298 11.3918 87.4298 14.1415C87.4298 16.8912 89.4566 18.8722 92.139 18.8722C94.8214 18.8722 96.8481 16.8912 96.8481 14.1415Z" fill="white"/>
<path d="M117.026 5.88647V21.5214H113.807V19.3926C112.675 20.9597 110.916 21.9058 108.591 21.9058C104.538 21.9058 101.17 18.5056 101.17 14.1297C101.17 9.75382 104.538 6.35363 108.591 6.35363C110.916 6.35363 112.675 7.29977 113.807 8.83725V6.738L117.026 5.88647ZM113.807 14.1297C113.807 11.38 111.78 9.39902 109.098 9.39902C106.416 9.39902 104.389 11.38 104.389 14.1297C104.389 16.8794 106.416 18.8604 109.098 18.8604C111.78 18.8604 113.807 16.8794 113.807 14.1297Z" fill="white"/>
<path d="M123.613 21.9294C123.297 21.9294 122.987 21.9294 122.689 21.9176C122.391 21.9058 122.105 21.894 121.825 21.8762C121.825 21.8762 120.943 21.7934 120.215 21.6397C119.959 21.5865 119.703 21.5096 119.458 21.4327C119.208 21.3558 118.958 21.2671 118.701 21.1666L118.552 21.1134V17.796C118.868 17.932 119.172 18.0562 119.458 18.1626C119.744 18.2691 120.03 18.3755 120.305 18.4701C120.579 18.5706 120.853 18.6475 121.121 18.7066C121.39 18.7658 121.664 18.8131 121.938 18.8545C122.212 18.8959 122.498 18.9254 122.784 18.955C123.029 18.9787 123.285 18.9964 123.553 18.9964C123.655 18.9964 123.75 18.9964 123.845 18.9905C125.133 18.9314 126.087 18.4405 126.087 17.3407C126.087 14.7092 118.069 16.1875 118.069 10.8951C118.069 8.15718 120.418 6.42456 123.392 6.37134C124.167 6.37134 124.746 6.43047 125.437 6.54874C125.777 6.59013 126.099 6.64335 126.421 6.7084C126.737 6.77936 127.052 6.86215 127.374 6.95676C127.571 7.03364 127.72 7.08686 127.821 7.1046V10.2387C127.565 10.1382 127.309 10.0495 127.064 9.97258C126.814 9.89571 126.552 9.81292 126.278 9.73605C125.723 9.57639 125.205 9.45812 124.704 9.39899C124.424 9.35759 124.161 9.32803 123.917 9.29846C123.667 9.26889 123.601 9.26889 123.345 9.26889C122.266 9.32211 121.354 9.82475 121.354 10.83C121.354 13.5206 129.371 11.8944 129.371 17.3643C129.371 20.2205 126.957 21.8053 123.893 21.9117C123.786 21.9117 123.673 21.9117 123.559 21.9117" fill="white"/>
<path d="M135.445 21.9294C135.129 21.9294 134.819 21.9294 134.521 21.9176C134.223 21.9058 133.937 21.894 133.657 21.8762C133.657 21.8762 132.775 21.7934 132.047 21.6397C131.791 21.5865 131.535 21.5096 131.29 21.4327C131.04 21.3558 130.79 21.2671 130.533 21.1666L130.384 21.1134V17.796C130.7 17.932 131.004 18.0562 131.29 18.1626C131.576 18.2691 131.863 18.3755 132.137 18.4701C132.417 18.5706 132.685 18.6475 132.953 18.7066C133.222 18.7658 133.496 18.8131 133.77 18.8545C134.044 18.8959 134.33 18.9254 134.616 18.955C134.861 18.9787 135.117 18.9964 135.385 18.9964C135.487 18.9964 135.582 18.9964 135.678 18.9905C136.965 18.9314 137.919 18.4405 137.919 17.3407C137.919 14.7092 129.901 16.1875 129.901 10.8951C129.901 8.15718 132.25 6.42456 135.224 6.37134C135.999 6.37134 136.578 6.43047 137.269 6.54874C137.609 6.59013 137.931 6.64335 138.253 6.7084C138.569 6.77936 138.884 6.86215 139.206 6.95676C139.403 7.03364 139.552 7.08686 139.653 7.1046V10.2387C139.397 10.1382 139.141 10.0495 138.896 9.97258C138.646 9.89571 138.384 9.81292 138.11 9.73605C137.555 9.57639 137.037 9.45812 136.536 9.39899C136.256 9.35759 135.993 9.32803 135.749 9.29846C135.499 9.26889 135.433 9.26889 135.177 9.26889C134.098 9.32211 133.186 9.82475 133.186 10.83C133.186 13.5206 141.203 11.8944 141.203 17.3643C141.203 20.2205 138.789 21.8053 135.725 21.9117C135.618 21.9117 135.505 21.9117 135.391 21.9117" fill="white"/>
<path d="M40.9113 16.5601C40.0887 17.9024 38.6044 18.7954 36.9175 18.7954C34.3364 18.7954 32.2381 16.7138 32.2381 14.1534C32.2381 11.5929 34.3364 9.51135 36.9175 9.51135C38.6044 9.51135 40.0768 10.4043 40.8994 11.7289L43.6772 10.1382C42.3002 7.86152 39.7847 6.32996 36.9175 6.32996C32.5719 6.32996 29.0371 9.83659 29.0371 14.1474C29.0371 18.4583 32.5719 21.9649 36.9175 21.9649C39.7906 21.9649 42.3121 20.4274 43.6891 18.139L40.9113 16.5483V16.5601Z" fill="white"/>
<path d="M5.88447 31.2845C5.88447 32.7983 4.73997 33.9455 3.1782 33.9455H0.883242V37.2333H0.227539V28.6176H3.1782C4.73997 28.6176 5.88447 29.7647 5.88447 31.2904M5.22877 31.2904C5.22877 30.0959 4.37039 29.2325 3.1782 29.2325H0.883242V33.3305H3.1782C4.37039 33.3305 5.22877 32.4672 5.22877 31.2845" fill="white"/>
<path d="M10.9153 33.6971H8.17328V37.2274H7.51758V28.6116H10.9451C12.3579 28.6116 13.5143 29.7529 13.5143 31.1602C13.5143 32.3311 12.7096 33.3127 11.6008 33.6084L13.7587 37.2274H13.0016L10.9153 33.6971ZM8.17328 33.0821H10.9392C11.9942 33.0821 12.8526 32.2187 12.8526 31.1602C12.8526 30.1017 11.9942 29.2266 10.9392 29.2266H8.17328V33.0821Z" fill="white"/>
<path d="M14.623 32.9224C14.623 30.4624 16.5961 28.4814 19.0997 28.4814C21.6033 28.4814 23.5764 30.4624 23.5764 32.9224C23.5764 35.3824 21.6033 37.3693 19.0997 37.3693C16.5961 37.3693 14.623 35.3883 14.623 32.9224ZM22.9266 32.9224C22.9266 30.8054 21.2516 29.1083 19.1057 29.1083C16.9597 29.1083 15.2847 30.8054 15.2847 32.9224C15.2847 35.0394 16.9597 36.7365 19.1057 36.7365C21.2516 36.7365 22.9266 35.0394 22.9266 32.9224Z" fill="white"/>
<path d="M30.0859 29.2325H27.3557V37.2333H26.6881V29.2325H23.958V28.6176H30.0859V29.2325Z" fill="white"/>
<path d="M36.4524 36.6184V37.2333H31.4512V28.6176H36.3928V29.2325H32.1128V32.5795H36.0828V33.1945H32.1128V36.6184H36.4524Z" fill="white"/>
<path d="M37.5069 32.9224C37.5069 30.4624 39.3787 28.4814 42.0253 28.4814C43.6288 28.4814 45.0296 29.2916 45.745 30.5511L45.1608 30.8823C44.5885 29.8238 43.3844 29.1083 42.0194 29.1083C39.7363 29.1083 38.1626 30.8054 38.1626 32.9224C38.1626 35.0394 39.7363 36.7365 42.0194 36.7365C43.3963 36.7365 44.6124 36.0092 45.1846 34.927L45.7688 35.2582C45.0594 36.5236 43.6467 37.3633 42.0194 37.3633C39.3787 37.3633 37.501 35.3824 37.501 32.9165" fill="white"/>
<path d="M52.5351 29.2325H49.805V37.2333H49.1373V29.2325H46.4072V28.6176H52.5351V29.2325Z" fill="white"/>
<path d="M54.5551 28.6176H53.8994V37.2333H54.5551V28.6176Z" fill="white"/>
<path d="M56.2246 32.9224C56.2246 30.4624 58.1977 28.4814 60.7013 28.4814C63.2049 28.4814 65.1779 30.4624 65.1779 32.9224C65.1779 35.3824 63.2049 37.3693 60.7013 37.3693C58.1977 37.3693 56.2246 35.3883 56.2246 32.9224ZM64.5282 32.9224C64.5282 30.8054 62.8532 29.1083 60.7072 29.1083C58.5613 29.1083 56.8863 30.8054 56.8863 32.9224C56.8863 35.0394 58.5613 36.7365 60.7072 36.7365C62.8532 36.7365 64.5282 35.0394 64.5282 32.9224Z" fill="white"/>
<path d="M73.213 28.6176V37.2333H72.6288L67.5024 29.8239V37.2333H66.8467V28.6176H67.413L72.5513 36.027V28.6176H73.213Z" fill="white"/>
</g>
</g>
<defs>
<clipPath id="clip0_565_227">
<rect width="141" height="37" fill="white" transform="translate(0.209961 0.369263)"/>
</clipPath>
</defs>
</svg>
