<svg width="134" height="30" viewBox="0 0 134 30" fill="none" xmlns="http://www.w3.org/2000/svg">
<g clip-path="url(#clip0_565_251)">
<path d="M105.74 9.76431C104.48 9.76431 103.44 8.72431 103.44 7.46431C103.44 6.20431 104.48 5.16431 105.74 5.16431C107 5.16431 108.04 6.17431 108.04 7.46431C108.04 8.75431 107 9.76431 105.74 9.76431ZM40.8799 24.5643H44.9599L45.4399 12.3043L49.5699 19.5843H51.7799L55.6899 12.2243L56.2299 24.5743H60.5099L59.6299 5.68431H55.5499L50.7399 14.5443L45.8099 5.68431H41.7599L40.8799 24.5743V24.5643ZM73.6999 20.5443C73.3999 20.7743 72.9199 21.0443 72.2599 21.3543C71.5999 21.6643 70.7399 21.8243 69.6799 21.8243C68.6199 21.8243 67.7599 21.5543 67.1499 21.0143C66.5399 20.4743 66.2199 19.8443 66.1999 19.1343H75.6599V18.4543C75.6599 17.3443 75.5199 16.3143 75.2399 15.3843C74.9599 14.4543 74.5399 13.6443 73.9799 12.9743C73.4199 12.3043 72.7399 11.7843 71.9299 11.4043C71.1199 11.0243 70.1699 10.8343 69.0999 10.8343C68.0299 10.8343 67.0599 11.0243 66.2099 11.4143C65.3599 11.8043 64.6399 12.3143 64.0599 12.9543C63.4699 13.5943 63.0299 14.3443 62.7099 15.2043C62.3999 16.0643 62.2399 16.9543 62.2399 17.8843C62.2399 18.9443 62.4099 19.9143 62.7399 20.7843C63.0699 21.6643 63.5499 22.4143 64.1799 23.0343C64.8099 23.6543 65.5799 24.1443 66.4899 24.4943C67.3999 24.8443 68.4199 25.0143 69.5499 25.0143C70.3999 25.0143 71.1499 24.9343 71.8099 24.7743C72.4699 24.6143 73.0399 24.4343 73.5199 24.2243C73.9999 24.0143 74.3899 23.8043 74.6899 23.5843C74.9899 23.3643 75.2199 23.2143 75.3699 23.1143L73.6999 20.5343V20.5443ZM66.1899 16.5243C66.1899 16.2443 66.2499 15.9543 66.3799 15.6643C66.4999 15.3743 66.6799 15.1043 66.9199 14.8543C67.1499 14.6143 67.4499 14.4043 67.8099 14.2443C68.1699 14.0843 68.5799 14.0043 69.0599 14.0043C69.5399 14.0043 69.9399 14.0843 70.2799 14.2443C70.6199 14.4043 70.8999 14.6043 71.1299 14.8543C71.3599 15.1043 71.5299 15.3643 71.6399 15.6643C71.7499 15.9543 71.8099 16.2443 71.8099 16.5243H66.1999H66.1899ZM89.4799 24.5643H101.9V21.0643H93.7499V5.67431H89.4699V24.5643H89.4799ZM103.69 24.5643H107.77V11.2843H103.69V24.5643ZM121.61 6.55431C121.01 6.04431 120.34 5.68431 119.6 5.47431C118.86 5.26431 118.14 5.16431 117.42 5.16431C116.74 5.16431 116.07 5.27431 115.42 5.49431C114.77 5.71431 114.19 6.04431 113.68 6.48431C113.17 6.92431 112.76 7.49431 112.45 8.16431C112.14 8.84431 111.98 9.65431 111.98 10.6043V11.2843H109.83V14.4843H111.98V24.5643H116.03V14.4843H119.17V11.2843H116.03V10.5443C116.03 9.88431 116.2 9.37431 116.54 9.01431C116.88 8.65431 117.33 8.47431 117.9 8.47431C118.26 8.47431 118.61 8.53431 118.95 8.64431C119.29 8.75431 119.6 8.91431 119.89 9.12431L121.62 6.54431L121.61 6.55431ZM86.3099 21.0243C86.0499 21.2143 85.7599 21.3743 85.4599 21.5143C85.1599 21.6543 84.7999 21.7243 84.3799 21.7243C83.8299 21.7243 83.4299 21.5543 83.1799 21.2043C82.9299 20.8543 82.7999 20.3643 82.7999 19.7143V14.4743H86.2299V11.2743H82.7999V7.71431H78.7199V11.2743H76.6199V14.4743H78.7199V19.4843C78.7199 20.3143 78.7999 21.0743 78.9699 21.7543C79.1399 22.4343 79.4199 23.0143 79.8199 23.4943C80.2199 23.9743 80.7299 24.3543 81.3799 24.6243C82.0199 24.8943 82.8099 25.0343 83.7599 25.0343C85.2699 25.0343 86.6699 24.5243 87.9499 23.5043L86.3099 21.0143V21.0243ZM131.44 20.5443C131.14 20.7743 130.66 21.0443 130 21.3543C129.34 21.6643 128.48 21.8243 127.42 21.8243C126.36 21.8243 125.5 21.5543 124.88 21.0143C124.27 20.4743 123.95 19.8443 123.93 19.1343H133.39V18.4543C133.39 17.3443 133.25 16.3143 132.97 15.3843C132.69 14.4543 132.27 13.6443 131.71 12.9743C131.15 12.3043 130.47 11.7843 129.66 11.4043C128.85 11.0243 127.9 10.8343 126.83 10.8343C125.76 10.8343 124.79 11.0243 123.94 11.4143C123.09 11.8043 122.37 12.3143 121.79 12.9543C121.2 13.5943 120.76 14.3443 120.44 15.2043C120.13 16.0643 119.97 16.9543 119.97 17.8843C119.97 18.9443 120.13 19.9143 120.47 20.7843C120.8 21.6643 121.28 22.4143 121.91 23.0343C122.54 23.6543 123.31 24.1443 124.22 24.4943C125.13 24.8443 126.15 25.0143 127.28 25.0143C128.13 25.0143 128.88 24.9343 129.54 24.7743C130.2 24.6143 130.77 24.4343 131.25 24.2243C131.73 24.0143 132.12 23.8043 132.42 23.5843C132.72 23.3643 132.95 23.2143 133.1 23.1143L131.43 20.5343L131.44 20.5443ZM123.94 16.5243C123.94 16.2443 124 15.9543 124.12 15.6643C124.24 15.3743 124.42 15.1043 124.66 14.8543C124.9 14.6143 125.19 14.4043 125.55 14.2443C125.91 14.0843 126.32 14.0043 126.8 14.0043C127.28 14.0043 127.68 14.0843 128.02 14.2443C128.36 14.4043 128.64 14.6043 128.87 14.8543C129.1 15.1043 129.27 15.3643 129.38 15.6643C129.49 15.9543 129.55 16.2443 129.55 16.5243H123.94Z" fill="white"/>
<path d="M15.7402 9.83438C18.9502 14.0844 20.8502 19.3744 20.8502 25.1044C20.8502 26.4844 20.7402 27.8444 20.5202 29.1744H29.8102C30.6202 29.1744 31.2702 28.5144 31.2702 27.7044V2.03437C31.2702 1.07437 30.3702 0.374375 29.4502 0.614375C23.9002 2.07437 19.1002 5.38438 15.7402 9.83438Z" fill="white"/>
<path d="M10.96 29.1744C10.75 27.8544 10.63 26.4944 10.63 25.1044C10.63 19.3644 12.53 14.0744 15.74 9.83436C12.38 5.38436 7.57996 2.07436 2.02996 0.614364C1.10996 0.364364 0.209961 1.07436 0.209961 2.03436V27.7044C0.209961 28.5144 0.859961 29.1744 1.66996 29.1744H10.96Z" fill="white"/>
<path d="M15.7399 9.83435C12.5299 14.0844 10.6299 19.3744 10.6299 25.1044C10.6299 26.4844 10.7399 27.8444 10.9599 29.1744H20.5299C20.7399 27.8544 20.8599 26.4944 20.8599 25.1044C20.8599 19.3644 18.9599 14.0744 15.7499 9.83435" fill="#F3F3F3"/>
</g>
<defs>
<clipPath id="clip0_565_251">
<rect width="133.2" height="28.61" fill="white" transform="translate(0.209961 0.564331)"/>
</clipPath>
</defs>
</svg>
