<svg width="99" height="30" viewBox="0 0 99 30" fill="none" xmlns="http://www.w3.org/2000/svg">
<g clip-path="url(#clip0_565_217)">
<mask id="mask0_565_217" style="mask-type:luminance" maskUnits="userSpaceOnUse" x="0" y="0" width="100" height="30">
<path d="M32.3895 15.927V18.827C32.4597 20.305 33.0982 23.8074 37.4276 24.2207L37.603 24.2347H44.2269V21.2577H37.5048C35.9962 21.2577 35.6945 20.1089 35.6945 18.9461H41.1816V15.927H32.3825H32.3895ZM85.9909 8.15863C85.5067 9.5596 86.0961 11.2758 87.4363 12.3265C87.9485 12.7398 88.7765 13.1531 89.9624 13.6014C92.5726 14.5821 96.0529 16.3263 96.0529 20.1229C96.0529 23.9195 93.4357 26.4482 89.0432 26.4973H88.8537C86.3978 26.4973 84.2437 25.9859 82.2649 24.9352L80.9739 24.2417L79.7599 26.6864L81.1423 27.4149C82.4754 28.1084 83.9139 28.6268 85.3243 28.9139C86.5873 29.2222 87.8433 29.3763 89.0572 29.3763C95.0074 29.3763 99.007 25.6567 99.007 20.1229C99.007 14.5891 93.5971 12.1374 90.6851 10.9606C90.4957 10.8835 90.3132 10.8135 90.1448 10.7504C89.6466 10.5543 89.2817 10.4142 89.0642 10.2461C88.6853 9.94487 88.566 9.5526 88.7204 9.10429C88.9099 8.55091 89.6396 8.47385 90.4044 8.47385C91.4289 8.47385 92.6709 8.74004 94.0111 9.24438L94.8952 9.59462L95.8074 6.87675L95.639 6.81371L95.6109 6.7997L95.1758 6.63158L94.9092 6.53351C93.1059 5.86805 91.6324 5.55284 90.4044 5.55284C88.1731 5.55284 86.5592 6.50549 85.9838 8.17264M37.4206 5.56685C33.0842 5.98013 32.4527 9.48255 32.3825 10.9606V13.7555H41.1816V10.8415H35.6945C35.6945 9.67868 35.9962 8.48786 37.5048 8.48786H44.2269V5.55284H37.596L37.4206 5.56685ZM52.619 13.7625H55.6081C56.1414 10.7434 58.8218 8.48786 61.9092 8.48786C65.4387 8.48786 68.3156 11.3528 68.3156 14.8833C68.3156 18.4137 65.4387 21.2787 61.9092 21.2787C58.7867 21.2787 56.1063 19.0021 55.5941 15.948H52.6049C53.1242 20.6132 57.1729 24.2417 61.9092 24.2417C67.0736 24.2417 71.2696 20.0458 71.2696 14.8973C71.2696 9.74873 67.0666 5.55284 61.9092 5.55284C57.222 5.55284 53.1803 9.14632 52.619 13.7695M5.26962 29.3412H8.27281V8.42482H11.2269C12.6232 8.47385 14.0336 9.4125 14.0336 11.4089V29.3412H17.0508V11.584C17.0508 8.8311 15.1703 5.76298 11.711 5.5038H5.26962V29.3342V29.3412ZM38.1784 0.418297C35.2173 0.418297 32.4878 1.20984 30.495 2.93303C28.2005 4.9154 26.9936 7.89245 26.9936 11.2548V18.5118C26.9936 21.8741 28.2075 24.69 30.495 26.6724C32.4878 28.3956 35.2173 29.3482 38.1784 29.3553H44.2269V26.4903L37.9889 26.4973C34.1718 26.4132 30.3196 23.6883 30.3196 18.5678V10.8695C30.3196 5.74897 34.1718 3.36733 37.9889 3.29028H44.2199V0.411292H38.1644L38.1784 0.418297ZM0 0.383272V29.3412H2.98214V3.28327L11.3672 3.29028C15.3247 3.37434 19.3172 5.88206 19.3172 11.2968V29.3412H22.2994V11.2968C22.2994 7.93448 21.0995 5.11153 18.8191 3.12917C16.7912 1.36395 14.0757 0.383272 11.1778 0.383272H0ZM50.2894 14.8973C50.2894 8.50187 55.5029 3.29728 61.9092 3.29728C68.3156 3.29728 73.529 8.50187 73.529 14.8973C73.529 21.2927 68.3156 26.4973 61.9092 26.4973C55.5029 26.4973 50.2894 21.2927 50.2894 14.8973ZM47.3915 14.8623C47.3915 22.8548 53.903 29.3553 61.9092 29.3553C69.9154 29.3553 76.427 22.8548 76.427 14.8623C76.427 6.86975 69.9154 0.369263 61.9092 0.369263C53.903 0.369263 47.3915 6.86975 47.3915 14.8623ZM89.1765 0.390277C85.3874 0.572403 82.2579 2.90501 81.016 6.47748C79.8231 9.88883 80.7072 13.4263 83.3245 15.7098C85.1488 17.2929 87.0574 18.0144 88.4538 18.5468L88.6923 18.6379C89.9694 19.1212 90.7412 19.4084 90.8044 20.1649C90.8395 20.4381 90.6851 20.7183 90.5798 20.8374C90.3062 21.1386 89.829 21.2577 88.8046 21.2577C87.4223 21.2577 85.1839 20.8514 83.4438 19.7096L83.2683 19.6115L81.9773 22.2173L82.1036 22.2944C84.0893 23.5342 86.5312 24.2207 88.98 24.2207C89.2326 24.2207 89.4852 24.2137 89.7378 24.1997C91.8078 24.0456 93.8707 22.4765 93.7444 20.1159C93.576 17.5381 91.7727 16.8166 89.4852 15.899C88.0468 15.3246 86.5662 14.7292 85.2611 13.5664C84.1525 12.6137 83.5771 11.3739 83.4929 9.76975C83.4087 8.04656 83.9911 6.42144 85.1418 5.2096C86.2926 3.94173 87.9064 3.29728 89.9413 3.29728C91.7587 3.29728 93.5339 3.60549 95.232 4.20091L96.5371 4.68424L97.4493 1.96636L95.6249 1.35694L95.4776 1.30791C93.4357 0.656461 91.8148 0.376268 90.0676 0.376268C89.7799 0.376268 89.4782 0.383272 89.1625 0.397282" fill="white"/>
</mask>
<g mask="url(#mask0_565_217)">
<path d="M99 0.369263H0V29.3693H99V0.369263Z" fill="white"/>
</g>
</g>
<defs>
<clipPath id="clip0_565_217">
<rect width="99" height="29" fill="white" transform="translate(0 0.369263)"/>
</clipPath>
</defs>
</svg>
