<svg width="106" height="36" viewBox="0 0 106 36" fill="none" xmlns="http://www.w3.org/2000/svg">
<g clip-path="url(#clip0_565_223)">
<path d="M105.21 20.7893V11.4793C105.21 6.90927 102.84 4.54927 99.2796 4.54927C97.0896 4.54927 95.8296 5.72927 95.2596 6.65927V2.77927C95.2596 1.30927 94.3996 0.249268 92.5196 0.249268H91.3196V18.1293C91.3196 19.7493 92.1696 20.7893 94.0396 20.7893H95.2696V11.7793C95.2696 8.97927 96.9296 8.04927 98.1496 8.04927C99.8796 8.04927 101.28 9.07927 101.28 11.6693V18.1293C101.28 19.8293 102.32 20.7893 103.97 20.7893H105.22H105.21ZM83.7696 0.249268H84.2696V4.89927H89.7696V6.51927C89.7696 7.33927 89.0296 8.38927 87.4196 8.38927H84.2596V14.7793C84.2596 16.8393 85.1796 17.6293 86.7496 17.6293C88.0096 17.6293 88.9896 17.4493 89.6196 17.0793H89.7596V18.4893C89.7596 20.1093 88.5896 21.1393 86.2996 21.1393C82.2896 21.1393 80.3196 18.9693 80.3196 15.2593V4.47927C80.3196 1.31927 82.6796 0.249268 83.7596 0.249268M65.1996 6.77927C65.2096 3.12927 62.9696 0.189268 57.4496 0.279268C55.1496 0.309268 52.2096 1.04927 51.0996 1.44927V17.8893C51.0996 20.0293 52.4096 20.7793 53.5296 20.7793H55.0496V12.9693C55.8596 13.4093 57.0096 13.6593 58.4296 13.6593C62.2696 13.6593 65.2196 11.0293 65.2196 6.76927M61.0796 7.12927C61.0796 9.06927 59.9596 10.2393 57.8996 10.2393C56.8696 10.2393 55.7596 10.0893 55.0596 9.88927V4.18927C55.4696 4.02927 56.2096 3.83927 57.4196 3.81927C60.2396 3.74927 61.0796 4.83927 61.0796 7.13927M74.8396 15.4293C74.8396 17.0693 74.0696 17.8893 72.3396 17.8893C70.6096 17.8893 69.5796 17.1493 69.5796 15.8993C69.5796 14.6493 70.4396 13.8793 73.4796 13.8793H74.8396V15.4193V15.4293ZM78.7796 15.3993V11.7293C78.7796 6.19927 75.5996 4.54927 72.0296 4.54927C70.5096 4.54927 69.3496 4.81927 68.4596 5.24927C65.5796 6.63927 66.1196 9.47927 66.1996 9.71927C66.2396 9.79927 66.3196 9.76927 66.3596 9.71927C66.9596 8.96927 68.5496 7.88927 71.4496 7.88927C73.8096 7.88927 74.8496 8.56927 74.8496 10.8193V11.0293H73.4896C67.5996 11.0293 65.5396 13.1893 65.5396 16.0393C65.5396 18.8893 68.0996 21.1093 72.3396 21.1093C76.2696 21.1093 78.7896 18.7793 78.7896 15.3893" fill="white"/>
<path d="M42.89 7.8393C40.96 7.8393 39.64 9.3993 39.55 11.2293V11.7493H41.3C45.02 11.7493 45.88 11.3393 45.88 10.2193C45.88 8.6393 44.7 7.8393 42.89 7.8393ZM43.26 21.1293C39.49 21.1293 35.46 18.0093 35.46 13.1693C35.46 7.8693 38.7 4.5593 43.23 4.5593C46.52 4.5593 49.58 6.9093 49.58 10.6993C49.58 13.6193 47.37 14.5593 42.14 14.5593H39.55C39.84 16.5493 41.66 17.8193 43.99 17.8193C45.64 17.8193 47.62 17.4893 48.84 16.3193C48.89 16.2693 48.98 16.2593 48.98 16.3193C49.62 19.9793 46.74 21.1293 43.25 21.1293M34.13 20.7893V11.5393C34.13 7.0493 31.05 4.5593 27.31 4.5593C22.36 4.5593 20.16 7.9893 20.16 11.3493V18.1993C20.16 19.6693 21.25 20.7993 22.92 20.7993H24.1V11.6093C24.1 9.3393 25.28 8.0493 27 8.0493C29.02 8.0493 30.2 9.2193 30.2 11.8993V18.1893C30.2 19.6593 31.3 20.7893 33.06 20.7893H34.13ZM9.25 3.8393C6.29 3.8393 4.15 6.2793 4.15 10.3993C4.15 15.2593 5.91 17.6293 9.58 17.6293C12.69 17.6293 14.7 15.3993 14.7 10.9593C14.7 6.2293 12.66 3.8393 9.25 3.8393ZM9.19 21.1293C4.12 21.1193 0 17.0393 0 11.0093C0 4.9793 3.52 0.279297 9.64 0.279297C14.52 0.279297 18.86 4.0093 18.86 10.3993C18.86 16.7893 15.35 21.1293 9.19 21.1293Z" fill="white"/>
<path d="M7.92973 29.6893C29.9597 26.6093 50.9197 26.3493 54.4397 26.9393C54.6197 26.9693 54.5697 27.0793 54.4497 27.0793C44.2197 28.6193 31.9497 31.5793 25.1997 33.9093C23.8497 34.3693 23.3797 34.8993 23.6397 35.4793C46.3197 29.9993 67.5297 28.4793 97.5797 29.5893C97.5797 29.3493 97.6897 28.6993 96.2897 28.4093C61.7197 21.1593 24.6497 24.8493 9.23973 28.3393C8.09973 28.5993 7.76973 29.1893 7.91973 29.6793" fill="white"/>
</g>
<defs>
<clipPath id="clip0_565_223">
<rect width="105.21" height="35.24" fill="white" transform="translate(0 0.249268)"/>
</clipPath>
</defs>
</svg>
