<svg width="65" height="26" viewBox="0 0 65 26" fill="none" xmlns="http://www.w3.org/2000/svg">
<path d="M43.6899 22.3143L43.6299 22.1843L34.3999 0.284302H27.7399L17.1299 25.4543H24.3999L31.0199 8.4943L33.7999 15.5943H29.9499L27.8399 20.9843H35.7899L37.6099 25.4443H41.5399C42.8199 25.4443 43.8499 24.4043 43.8499 23.1343C43.8499 22.8443 43.7899 22.5643 43.6899 22.3043" fill="white"/>
<path d="M0.0195312 0.284302V6.3943H7.54953V25.4543H14.5095V6.3943H20.1495C21.1095 6.3943 21.9295 5.8143 22.2895 4.9843V4.9643L24.2695 0.284302H0.0195312Z" fill="white"/>
<path d="M52.2491 19.3443V0.284302H45.2891V25.4543H60.2891C61.2491 25.4543 62.0791 24.8743 62.4291 24.0443V24.0243L64.4091 19.3443H52.2491Z" fill="white"/>
</svg>
