<svg width="133" height="32" viewBox="0 0 133 32" fill="none" xmlns="http://www.w3.org/2000/svg">
<path d="M15.6002 0.704317C7.21016 0.704317 0.410156 7.50432 0.410156 15.8943C0.410156 19.3643 1.57016 22.5543 3.52016 25.1043L16.1502 8.50432H14.7902H13.4402C12.0002 8.50432 10.6502 8.60432 9.67016 8.79432C9.08016 8.91432 8.55016 9.12432 8.12016 9.42432C7.62016 9.77432 6.99016 10.5243 6.57016 11.2643C6.52016 11.3543 6.45016 11.4743 6.37016 11.6543L5.63016 11.4843L6.87016 6.71432H22.6902L10.1202 23.5243C10.9402 23.4543 11.2602 23.4343 11.9302 23.4343C12.4402 23.4343 13.2102 23.4643 14.2502 23.5243L16.4802 23.6643C17.2802 23.7143 17.9602 23.7343 18.4802 23.7343C19.6302 23.7343 20.3802 23.6443 21.1302 23.4143C21.7102 23.2343 22.2502 22.9743 22.7602 22.6343C23.6402 22.0243 24.5002 21.0443 25.0202 20.0643C25.0702 19.9643 25.1502 19.8143 25.2402 19.6143L25.9102 19.7843C25.6902 20.6143 25.5802 20.9343 25.2402 21.6843C24.5602 23.1943 23.8002 24.2043 22.7502 24.9743C21.6702 25.7743 20.4802 26.1643 19.0702 26.1843H18.8602C17.8202 26.1843 17.0102 26.0943 14.5102 25.7143C11.9702 25.3243 10.6702 25.1843 9.39016 25.1843C8.54016 25.1843 7.74016 25.2543 6.92016 25.3843C5.83016 25.5543 5.40016 25.6843 4.41016 26.1343C7.18016 29.1643 11.1802 31.0643 15.6102 31.0643C24.0002 31.0643 30.8002 24.2643 30.8002 15.8643C30.8002 7.46432 24.0002 0.674316 15.6102 0.674316" fill="#E5E8E8"/>
<path d="M93.83 11.2543C93.83 10.2643 93.86 9.99428 93.98 9.59428C94.03 9.43428 94.1 9.27428 94.19 9.13428C94.34 8.88428 94.45 8.76428 94.75 8.51428H90C90.31 8.78428 90.41 8.88428 90.55 9.10428C90.65 9.25428 90.73 9.42428 90.78 9.58428C90.89 9.94428 90.93 10.2943 90.93 11.1743C90.93 11.6243 90.93 11.9243 90.93 12.0643V20.9243C90.93 21.4443 90.84 21.9943 90.7 22.3543C90.64 22.5043 90.56 22.6543 90.46 22.7843C90.35 22.9443 90.27 23.0343 90.01 23.3043H94.71C94.48 23.1043 94.4 23.0143 94.25 22.7843C94.15 22.6443 94.07 22.4843 94.01 22.3343C93.88 21.9943 93.81 21.5043 93.81 21.0343V11.2443L93.83 11.2543Z" fill="#E5E8E8"/>
<path d="M125.46 11.2443C125.46 10.5843 125.51 10.0843 125.62 9.67427C125.67 9.48427 125.75 9.30427 125.85 9.12427C126 8.87427 126.12 8.75427 126.44 8.50427H121.61C121.89 8.73427 121.99 8.84427 122.15 9.10427C122.26 9.27427 122.34 9.45427 122.4 9.62427C122.51 9.97427 122.56 10.4043 122.56 11.1843V14.7843H115.93V12.0843C115.93 11.2643 115.93 10.7343 115.97 10.3243C115.99 10.0843 116.03 9.86427 116.09 9.68427C116.19 9.36427 116.46 8.92427 116.7 8.67427C116.73 8.63427 116.79 8.58427 116.86 8.51427H112.12C112.4 8.80427 112.48 8.89427 112.61 9.08427C112.71 9.23427 112.8 9.40427 112.87 9.58427C112.99 9.95427 113.02 10.1643 113.03 11.1543L113.05 12.0943V20.2043C113.05 21.0243 113.03 21.3843 112.99 21.7643C112.96 21.9543 112.91 22.1543 112.84 22.3543C112.72 22.6743 112.55 22.9243 112.27 23.1843C112.24 23.2143 112.18 23.2643 112.11 23.3343H116.8C116.59 23.1243 116.52 23.0343 116.4 22.8443C116.31 22.7043 116.23 22.5543 116.16 22.3843C116.01 21.9943 115.96 21.7143 115.94 21.0843C115.94 20.7643 115.94 20.4743 115.94 20.2043V16.6143H122.57V20.2243C122.57 21.0243 122.57 21.3143 122.5 21.7343C122.48 21.9543 122.42 22.1743 122.34 22.3743C122.23 22.6543 122.06 22.9043 121.81 23.1543C121.77 23.1943 121.7 23.2543 121.61 23.3343H126.34C126.15 23.1443 126.07 23.0543 125.94 22.8743C125.82 22.7143 125.73 22.5543 125.67 22.3843C125.52 22.0343 125.49 21.7743 125.48 21.0443C125.48 20.6043 125.47 20.3543 125.47 20.2743V12.1243L125.48 11.2543L125.46 11.2443Z" fill="#E5E8E8"/>
<path d="M87.6405 22.2943C87.1205 21.7943 86.6505 21.3243 85.9605 20.5743C85.5205 20.1043 85.1605 19.6943 84.8805 19.3743L82.5805 16.6643C82.8605 16.5843 82.9805 16.5443 83.2405 16.4343C83.9905 16.1343 84.5505 15.8143 85.0705 15.3843C85.6605 14.8943 86.0205 14.3643 86.2405 13.6943C86.3705 13.3143 86.4205 12.9343 86.4205 12.5543C86.4205 11.6443 86.0805 10.8143 85.4205 10.1243C84.8105 9.48427 83.9605 9.01427 83.0205 8.78427C82.3605 8.63427 81.6705 8.56427 80.4905 8.52427C80.0505 8.51427 79.5905 8.50427 79.1205 8.50427H75.3005C75.5605 8.74427 75.6505 8.84427 75.7905 9.06427C75.9005 9.23427 76.0005 9.41427 76.0505 9.60427C76.1505 9.93427 76.1905 10.3943 76.1905 11.1843V20.8943C76.1905 21.5943 76.1505 22.0043 76.0305 22.3243C75.9605 22.4943 75.8805 22.6443 75.7705 22.7943C75.6305 22.9643 75.5505 23.0543 75.2705 23.3043H79.9805C79.7705 23.0743 79.7005 23.0043 79.5705 22.8243C79.4705 22.6843 79.3805 22.5343 79.3205 22.3743C79.1905 22.0443 79.1305 21.6943 79.1305 21.0043C79.1305 20.7843 79.1205 20.5343 79.1205 20.2643V16.9343L81.8605 20.2243C81.9905 20.3843 82.1905 20.6143 82.4705 20.9443C82.7905 21.3043 83.0305 21.5743 83.2005 21.7443C83.7305 22.2943 84.2305 22.6943 84.7305 22.9643C85.1605 23.1943 85.5605 23.2843 86.2005 23.3143C86.4405 23.3143 86.7005 23.3143 86.9705 23.3143H88.8305C88.5905 23.1143 88.4805 23.0343 88.2905 22.8643C88.0905 22.6843 87.8705 22.5043 87.6605 22.2843M82.0105 15.0243C81.4805 15.3343 80.9405 15.5143 80.1505 15.6243C79.8505 15.6743 79.5905 15.6943 79.3805 15.6943C79.3005 15.6943 79.2505 15.6943 79.1405 15.6843V10.2043C79.3305 10.2043 79.4005 10.2043 79.5305 10.2043C80.2505 10.2043 80.9605 10.2843 81.5205 10.4443C81.8905 10.5543 82.2405 10.7343 82.5305 10.9843C83.0305 11.4143 83.2905 12.0343 83.2905 12.8043C83.2905 13.4743 83.1005 14.0443 82.7105 14.4743C82.5305 14.6843 82.2905 14.8643 82.0205 15.0243" fill="#E5E8E8"/>
<path d="M108.03 21.1743C107.14 21.5543 106.32 21.7243 105.45 21.7243C103.92 21.7243 102.61 21.1743 101.64 20.1343C100.68 19.0943 100.17 17.6543 100.17 16.0343C100.17 14.4143 100.65 13.0443 101.51 12.0443C101.88 11.6043 102.33 11.2343 102.85 10.9443C103.69 10.4743 104.66 10.2343 105.72 10.2343C106.62 10.2343 107.5 10.4143 108.38 10.7743C108.93 10.9943 109.13 11.1043 109.6 11.4443V8.66431C109.24 8.54431 109.09 8.5043 108.7 8.4243C107.84 8.2443 107.02 8.16431 106.09 8.16431C104.5 8.16431 103.13 8.4243 101.87 8.9543C101.12 9.2643 100.44 9.67431 99.8298 10.1643C98.0098 11.6343 97.0098 13.7643 97.0098 16.2143C97.0098 18.6643 97.9698 20.6543 99.7098 22.0343C101.15 23.1743 103.01 23.7443 105.24 23.7443C106.63 23.7443 107.93 23.5343 109.39 23.0843C109.45 23.0643 109.53 23.0443 109.63 23.0043V20.3143C109.27 20.5443 109.15 20.6243 108.94 20.7543C108.65 20.9143 108.35 21.0743 108.03 21.2043" fill="#E5E8E8"/>
<path d="M68.6705 9.08429C68.7605 9.24429 68.8405 9.41429 68.8905 9.58429C68.9905 9.94429 69.0205 10.3043 69.0205 11.1343V16.7643C69.0205 17.9743 68.9905 18.6843 68.9005 19.2743C68.8405 19.6643 68.7105 20.0343 68.5205 20.3643C68.1605 20.9643 67.4905 21.4343 66.7005 21.6343C66.3805 21.7143 66.0305 21.7543 65.6505 21.7543C64.3805 21.7543 63.2905 21.2743 62.7605 20.5043C62.3505 19.9043 62.2405 19.3243 62.2205 17.8043V16.5843L62.2105 12.1243C62.2105 11.2643 62.2105 10.8443 62.2505 10.4043C62.2605 10.1443 62.3005 9.91429 62.3605 9.72429C62.4605 9.38429 62.7205 8.93429 62.9505 8.65429C62.9805 8.62429 63.0205 8.58429 63.0805 8.52429H58.2705C58.5705 8.77429 58.6605 8.88429 58.8105 9.12429C58.9005 9.28429 58.9805 9.46429 59.0205 9.64429C59.0805 9.86429 59.1205 10.0943 59.1205 10.3243C59.1205 10.4743 59.1205 10.7743 59.1205 11.2443V12.1043V16.3443C59.1205 17.9143 59.1205 18.3143 59.1805 18.9443C59.2705 20.0243 59.5905 20.8943 60.2205 21.6743C61.3405 23.0843 63.1405 23.8243 65.4405 23.8243C66.5405 23.8243 67.6005 23.6543 68.4105 23.3543C69.2605 23.0343 70.0505 22.5143 70.6105 21.8843C71.2905 21.1143 71.6905 20.1743 71.8005 19.0043C71.8705 18.3243 71.9005 17.5243 71.9005 16.3643V11.2643L71.8905 11.0943C71.8905 10.4543 71.9305 10.0843 72.0205 9.74429C72.0705 9.53429 72.1605 9.33429 72.2805 9.14429C72.4405 8.89429 72.5505 8.77429 72.8605 8.52429H68.1405C68.4305 8.75429 68.5305 8.85429 68.6805 9.09429" fill="#E5E8E8"/>
<path d="M52.4404 21.2343C51.7804 21.3543 51.0404 21.4243 50.1204 21.4443C49.8104 21.4443 49.4204 21.4443 48.9404 21.4443H46.6704L55.6404 8.50427H44.0004L42.5704 11.6643C43.0504 11.4043 43.2404 11.3243 43.6504 11.1543C44.3104 10.8943 45.0404 10.6843 45.7504 10.5643C46.3604 10.4643 46.9204 10.4143 47.8404 10.3843C48.2504 10.3743 48.6404 10.3643 48.9904 10.3643H50.7104L41.6504 23.3143H54.4504L55.9304 19.9343C55.4204 20.2243 55.2304 20.3243 54.8404 20.5043C54.0904 20.8443 53.2804 21.0943 52.4404 21.2343Z" fill="#E5E8E8"/>
<path d="M130.35 2.93433C129.42 2.93433 128.67 3.61432 128.67 4.60432C128.67 5.59432 129.42 6.27433 130.35 6.27433C131.28 6.27433 132.02 5.60432 132.02 4.60432C132.02 3.60432 131.27 2.93433 130.35 2.93433ZM130.35 6.04432C129.57 6.04432 128.95 5.46433 128.95 4.61433C128.95 3.76433 129.57 3.18433 130.35 3.18433C131.13 3.18433 131.75 3.76433 131.75 4.61433C131.75 5.46433 131.15 6.04432 130.35 6.04432Z" fill="#E5E8E8"/>
<path d="M131.09 4.21432C131.09 3.75432 130.77 3.67432 130.26 3.67432H129.72V5.44432H129.98V4.75432H130.44C130.44 4.75432 130.48 4.75432 130.49 4.75432L130.86 5.45432H131.16L130.75 4.70432C130.98 4.61432 131.09 4.42432 131.09 4.22432M130.38 4.51432H129.98V3.94432H130.36C130.62 3.94432 130.81 3.99432 130.81 4.22432C130.81 4.41432 130.68 4.50432 130.38 4.50432" fill="#E5E8E8"/>
</svg>
